<svg id="svg" version="1.1" xmlns="http://www.w3.org/2000/svg" xmlns:xlink="http://www.w3.org/1999/xlink" width="400" height="400" viewBox="0, 0, 400,400"><g id="svgg"><path id="path0" d="M0.000 0.391 C 0.000 0.651,66.927 0.781,200.000 0.781 C 333.073 0.781,400.000 0.651,400.000 0.391 C 400.000 0.131,333.073 0.000,200.000 0.000 C 66.927 0.000,0.000 0.131,0.000 0.391 M197.363 75.291 C 193.284 75.457,193.133 76.162,197.168 76.202 C 200.135 76.231,200.168 76.242,198.828 76.758 L 197.461 77.284 199.382 77.314 C 202.138 77.357,201.412 77.691,198.383 77.774 L 195.823 77.844 195.575 93.512 C 195.438 102.129,195.249 109.531,195.154 109.961 C 195.059 110.391,194.933 112.324,194.873 114.258 L 194.764 117.773 194.531 112.891 L 194.299 108.008 194.220 114.746 C 194.152 120.510,194.225 121.484,194.727 121.484 C 195.212 121.484,195.195 121.608,194.629 122.204 C 193.900 122.971,193.281 122.943,193.565 122.155 C 193.666 121.876,188.657 118.315,181.408 113.515 L 169.080 105.350 165.373 109.022 C 160.114 114.233,159.986 113.373,166.697 117.943 C 169.867 120.102,177.295 125.165,183.203 129.196 L 193.945 136.524 194.053 142.954 C 194.112 146.490,194.077 149.602,193.975 149.869 C 193.799 150.327,191.040 148.506,165.820 131.287 C 159.158 126.738,158.387 126.308,158.283 127.086 C 158.182 127.846,160.116 157.968,160.788 166.113 C 160.932 167.852,160.887 169.141,160.683 169.141 C 160.398 169.141,151.018 163.715,149.373 162.598 C 149.097 162.410,148.559 156.040,147.881 144.922 C 147.298 135.361,146.702 126.824,146.555 125.950 L 146.289 124.361 140.656 125.073 C 137.558 125.464,134.938 125.869,134.835 125.972 C 134.732 126.076,135.043 132.503,135.527 140.255 C 136.010 148.007,136.327 154.429,136.229 154.526 C 136.132 154.623,127.682 149.676,117.451 143.532 C 107.221 137.389,98.693 132.459,98.501 132.578 C 98.044 132.860,92.578 141.974,92.578 142.454 C 92.578 142.657,93.677 143.442,95.020 144.198 C 97.400 145.539,106.057 150.770,122.250 160.654 C 126.646 163.337,130.298 165.698,130.365 165.901 C 130.433 166.103,124.859 169.031,117.978 172.408 C 109.611 176.514,105.469 178.746,105.469 179.149 C 105.469 179.777,106.653 184.636,107.670 188.184 C 108.416 190.782,106.295 191.515,126.086 181.812 L 143.264 173.389 148.856 176.666 C 151.931 178.468,154.506 180.118,154.577 180.333 C 154.698 180.695,143.908 186.082,124.121 195.540 C 119.663 197.671,116.060 199.544,116.113 199.704 C 116.167 199.863,119.111 201.378,122.656 203.070 C 140.032 211.364,154.483 218.389,154.780 218.686 C 155.103 219.009,144.229 225.781,143.388 225.781 C 143.155 225.781,135.232 222.002,125.781 217.383 C 116.331 212.764,108.530 208.984,108.446 208.984 C 108.260 208.984,108.115 209.476,106.482 215.644 L 105.185 220.546 117.864 226.915 C 124.838 230.418,130.395 233.429,130.213 233.606 C 130.032 233.783,121.709 238.884,111.719 244.940 C 101.729 250.997,93.259 256.159,92.897 256.412 C 92.338 256.804,96.433 264.921,98.330 267.180 C 98.514 267.399,98.196 267.583,108.789 261.128 C 126.912 250.084,135.579 244.922,135.999 244.922 C 136.314 244.922,136.367 246.011,136.186 248.730 C 135.679 256.359,134.773 273.185,134.866 273.273 C 134.918 273.323,137.545 273.701,140.703 274.115 L 146.445 274.866 146.657 272.882 C 146.774 271.791,147.324 263.340,147.879 254.102 C 148.738 239.799,148.985 237.209,149.542 236.659 C 150.516 235.695,160.595 229.671,160.908 229.865 C 161.057 229.957,160.965 232.547,160.703 235.621 C 159.576 248.879,158.044 271.994,158.254 272.588 C 158.333 272.813,161.914 270.608,166.211 267.688 C 184.850 255.019,193.541 249.285,193.831 249.464 C 194.001 249.569,194.141 252.515,194.141 256.010 C 194.141 263.663,195.952 261.555,180.273 272.150 C 169.870 279.180,161.492 284.928,160.989 285.380 C 160.770 285.577,168.861 294.141,169.267 294.141 C 169.462 294.141,170.436 293.552,171.432 292.833 C 176.899 288.886,193.690 277.805,193.895 278.010 C 194.027 278.142,194.020 288.593,193.879 301.234 L 193.622 324.219 199.936 324.219 L 206.250 324.219 206.250 300.944 C 206.250 288.143,206.400 277.728,206.583 277.799 C 207.025 277.973,224.384 289.691,228.181 292.381 L 231.166 294.495 235.313 290.053 L 239.460 285.612 235.843 283.061 C 233.854 281.658,226.382 276.521,219.238 271.645 L 206.250 262.780 206.250 255.999 C 206.250 252.270,206.348 249.219,206.469 249.219 C 206.733 249.219,222.561 259.807,233.516 267.313 C 237.878 270.302,241.558 272.634,241.696 272.497 C 241.958 272.235,241.579 264.969,240.179 243.451 C 239.714 236.305,239.436 230.356,239.560 230.232 C 239.684 230.108,242.337 231.534,245.455 233.400 L 251.125 236.794 251.336 238.807 C 251.696 242.244,253.126 263.378,253.388 269.137 C 253.550 272.687,253.787 274.610,254.065 274.611 C 254.300 274.611,256.909 274.316,259.863 273.955 L 265.234 273.299 265.243 271.122 C 265.248 269.925,264.947 263.636,264.575 257.147 C 264.202 250.657,264.000 245.244,264.127 245.118 C 264.324 244.921,292.431 261.576,298.933 265.743 C 301.771 267.562,301.957 267.551,303.045 265.499 C 303.538 264.571,304.817 262.338,305.888 260.537 C 308.126 256.775,308.124 256.729,305.601 255.276 C 304.561 254.677,298.877 251.236,292.969 247.629 C 287.061 244.022,279.502 239.424,276.172 237.411 C 272.842 235.398,270.159 233.584,270.210 233.380 C 270.261 233.175,275.740 230.283,282.385 226.953 C 289.030 223.623,294.586 220.779,294.731 220.633 C 294.980 220.385,292.408 210.459,291.856 209.536 C 291.694 209.266,287.895 210.903,281.428 214.029 C 275.833 216.733,268.008 220.494,264.038 222.388 L 256.822 225.830 251.067 222.442 C 247.902 220.578,245.317 218.941,245.323 218.804 C 245.328 218.667,254.032 214.345,264.664 209.199 C 279.605 201.969,283.884 199.742,283.502 199.395 C 283.230 199.148,274.530 194.832,264.169 189.805 C 253.807 184.777,245.326 180.573,245.321 180.461 C 245.311 180.225,256.154 173.689,256.838 173.519 C 257.266 173.412,269.862 179.417,282.137 185.580 C 287.080 188.063,289.032 188.790,288.518 187.957 C 288.219 187.474,289.786 187.677,290.297 188.187 C 290.624 188.515,290.497 188.576,289.802 188.426 C 288.901 188.231,288.894 188.245,289.616 188.832 C 290.555 189.594,291.420 189.005,291.109 187.815 C 290.990 187.360,291.052 187.085,291.247 187.203 C 291.442 187.322,291.627 186.752,291.658 185.937 C 291.689 185.121,291.912 184.128,292.154 183.731 C 292.513 183.141,292.550 183.269,292.356 184.428 C 292.202 185.343,292.283 185.951,292.585 186.137 C 292.907 186.336,292.983 186.198,292.827 185.693 C 292.532 184.733,293.171 181.998,293.779 181.623 C 294.119 181.412,294.015 181.178,293.417 180.805 C 292.474 180.216,292.272 179.486,293.144 179.821 C 293.542 179.974,293.638 179.851,293.468 179.408 C 293.307 178.989,293.379 178.872,293.684 179.061 C 293.945 179.222,294.141 179.121,294.141 178.826 C 294.141 178.383,291.541 176.953,290.735 176.953 C 290.583 176.953,291.068 177.489,291.812 178.145 C 292.753 178.975,292.858 179.152,292.156 178.730 C 291.602 178.396,291.031 178.240,290.887 178.384 C 290.743 178.528,290.625 178.460,290.625 178.234 C 290.625 178.007,290.405 177.846,290.137 177.875 C 289.244 177.975,267.188 166.764,267.188 166.212 C 267.188 165.478,269.781 163.486,274.333 160.721 C 281.140 156.588,282.218 155.913,282.719 155.473 C 283.502 154.784,282.635 153.646,280.659 152.772 C 279.690 152.344,278.906 151.731,278.906 151.403 C 278.906 150.012,275.651 149.684,274.387 150.948 C 274.049 151.286,273.608 151.563,273.406 151.563 C 273.205 151.563,272.312 152.090,271.422 152.734 C 270.533 153.379,269.546 153.906,269.229 153.906 C 268.912 153.906,267.602 154.608,266.317 155.466 C 265.032 156.325,263.842 156.941,263.672 156.836 C 263.502 156.731,263.262 156.908,263.139 157.229 C 262.597 158.641,261.675 157.848,261.889 156.152 C 262.398 152.105,262.621 136.207,262.164 136.490 C 261.912 136.645,261.807 136.936,261.931 137.136 C 262.054 137.336,261.871 137.500,261.523 137.500 C 261.176 137.500,261.000 137.324,261.133 137.109 C 261.266 136.895,261.100 136.719,260.765 136.719 C 260.217 136.719,259.981 136.263,260.110 135.449 C 260.135 135.288,259.973 135.156,259.749 135.156 C 259.525 135.156,258.971 134.811,258.518 134.389 C 258.065 133.966,257.545 133.713,257.363 133.826 C 257.180 133.938,257.031 133.877,257.031 133.690 C 257.031 133.503,256.636 132.925,256.152 132.405 L 255.273 131.460 255.030 133.406 C 254.896 134.476,254.466 139.702,254.075 145.020 C 253.685 150.337,253.240 154.688,253.086 154.688 C 252.933 154.688,252.899 155.039,253.012 155.469 C 253.124 155.898,253.029 156.250,252.799 156.250 C 252.570 156.250,252.315 155.327,252.233 154.199 C 252.091 152.254,252.083 152.275,252.083 154.590 C 252.083 155.933,251.969 157.146,251.829 157.286 C 251.689 157.425,251.845 157.738,252.176 157.979 C 252.578 158.273,252.679 158.675,252.481 159.190 C 252.205 159.907,252.165 159.892,251.912 158.984 C 251.714 158.272,251.630 158.559,251.601 160.047 C 251.556 162.448,251.763 162.257,244.531 166.558 C 238.768 169.986,238.980 170.066,239.445 164.637 C 239.646 162.280,240.082 155.693,240.413 150.000 C 240.744 144.307,241.112 138.022,241.231 136.035 C 241.350 134.048,241.300 132.422,241.120 132.422 C 240.940 132.422,240.777 132.729,240.759 133.105 C 240.741 133.481,240.679 135.147,240.622 136.807 C 240.566 138.466,240.365 139.729,240.177 139.613 C 239.990 139.497,239.933 137.297,240.053 134.723 L 240.270 130.044 238.738 130.826 C 237.895 131.256,237.053 131.483,236.865 131.331 C 236.677 131.179,236.657 131.217,236.820 131.416 C 237.156 131.826,235.179 133.263,234.692 132.963 C 234.134 132.618,234.351 132.092,235.156 131.836 C 235.586 131.700,235.938 131.430,235.938 131.236 C 235.938 130.561,234.508 131.426,225.000 137.856 C 219.736 141.416,213.642 145.511,211.457 146.955 C 209.273 148.400,207.371 149.767,207.231 149.993 C 206.512 151.156,206.250 149.335,206.250 143.166 L 206.250 136.379 207.828 135.279 C 210.226 133.609,216.500 129.050,217.383 128.337 C 218.382 127.529,215.301 129.368,212.500 131.250 C 206.128 135.533,205.435 135.546,211.536 131.268 C 222.815 123.360,227.814 120.277,224.204 123.457 C 223.098 124.431,223.029 124.568,223.828 124.209 C 225.434 123.488,239.045 114.286,239.054 113.915 C 239.063 113.558,231.740 105.762,231.183 105.535 C 231.009 105.464,229.196 106.570,227.155 107.993 C 225.113 109.417,222.116 111.460,220.493 112.535 C 218.870 113.609,217.199 114.832,216.779 115.252 C 216.359 115.672,215.811 116.016,215.560 116.016 C 215.309 116.016,215.218 116.129,215.357 116.268 C 215.496 116.407,216.312 116.055,217.171 115.487 C 218.030 114.918,218.855 114.453,219.004 114.453 C 219.153 114.453,219.596 114.162,219.989 113.807 C 220.382 113.451,220.696 113.319,220.688 113.514 C 220.668 113.977,217.359 116.406,216.748 116.406 C 216.489 116.406,216.388 116.518,216.524 116.654 C 216.757 116.887,214.097 118.623,211.515 119.921 C 210.875 120.243,210.264 120.595,210.156 120.704 C 210.049 120.812,209.170 121.427,208.203 122.070 C 207.236 122.714,206.356 123.358,206.246 123.503 C 205.599 124.357,204.989 123.917,204.938 122.558 C 204.908 121.753,205.015 121.093,205.176 121.094 C 205.337 121.094,205.469 121.280,205.469 121.507 C 205.469 121.735,205.645 121.812,205.859 121.680 C 206.481 121.295,206.318 120.857,205.371 120.370 L 204.492 119.918 205.371 120.141 L 206.250 120.365 206.250 97.683 L 206.250 75.000 203.418 75.080 C 201.860 75.123,199.136 75.218,197.363 75.291 M204.219 80.762 C 204.158 84.087,204.114 84.380,204.008 82.170 C 203.891 79.741,203.770 79.352,203.069 79.169 C 202.627 79.053,202.365 78.798,202.486 78.601 C 202.608 78.404,202.355 77.865,201.924 77.403 L 201.141 76.563 202.719 76.563 L 204.297 76.563 204.219 80.762 M223.242 95.778 C 218.628 99.014,218.748 98.724,220.826 101.635 C 223.762 105.750,224.923 106.066,226.684 103.228 C 226.859 102.948,227.166 102.820,227.368 102.945 C 227.569 103.069,227.734 103.023,227.734 102.842 C 227.734 102.660,228.262 102.201,228.906 101.820 C 230.513 100.871,230.396 100.205,228.027 96.805 L 225.977 93.861 223.242 95.778 M172.499 96.687 C 171.350 98.331,170.816 99.449,170.979 99.873 C 171.171 100.374,171.072 100.466,170.553 100.267 C 169.602 99.902,174.142 104.239,175.364 104.862 C 176.344 105.362,176.424 105.298,178.808 102.111 L 181.250 98.848 177.760 96.501 L 174.269 94.155 172.499 96.687 M227.115 98.323 L 228.509 100.551 226.852 101.589 C 225.941 102.159,224.945 102.532,224.639 102.417 C 224.247 102.270,224.157 102.401,224.334 102.862 C 224.762 103.978,224.390 103.599,222.715 101.211 L 221.098 98.906 223.147 97.516 C 225.737 95.758,225.478 95.706,227.115 98.323 M233.390 110.294 C 235.524 112.280,235.590 112.398,234.713 112.632 C 233.836 112.866,233.082 112.333,232.709 111.213 C 232.637 110.996,232.147 110.787,231.621 110.748 C 231.095 110.709,230.721 110.525,230.791 110.339 C 230.860 110.152,230.541 109.861,230.082 109.691 C 229.623 109.521,229.351 109.212,229.480 109.005 C 229.608 108.797,229.971 108.727,230.286 108.848 C 230.601 108.969,230.859 108.873,230.859 108.636 C 230.859 107.973,230.982 108.054,233.390 110.294 M228.106 110.374 C 227.692 110.873,225.306 112.109,224.757 112.109 C 224.105 112.109,224.882 111.203,226.074 110.573 C 227.936 109.590,228.829 109.503,228.106 110.374 M224.048 112.012 C 223.993 112.388,223.669 112.698,223.329 112.700 C 222.989 112.703,222.582 112.835,222.423 112.993 C 222.265 113.152,221.867 113.281,221.539 113.281 C 221.197 113.281,221.508 112.863,222.266 112.305 C 223.832 111.149,224.185 111.091,224.048 112.012 M236.716 113.184 C 236.714 113.449,235.755 114.108,233.301 115.531 C 232.817 115.811,232.422 115.874,232.422 115.670 C 232.422 115.467,232.949 115.066,233.594 114.781 C 234.238 114.496,234.766 114.130,234.766 113.967 C 234.766 113.805,235.029 113.672,235.352 113.672 C 235.674 113.672,235.938 113.496,235.938 113.281 C 235.938 113.066,236.113 112.891,236.328 112.891 C 236.543 112.891,236.718 113.022,236.716 113.184 M211.605 118.497 C 210.791 118.972,209.477 119.883,208.686 120.521 C 207.896 121.158,206.905 121.772,206.485 121.886 C 206.065 121.999,205.650 122.308,205.562 122.572 C 205.315 123.314,207.041 122.542,209.245 120.925 C 210.283 120.164,211.732 119.099,212.465 118.559 C 214.097 117.358,213.616 117.323,211.605 118.497 M123.926 123.724 L 122.266 123.873 122.266 127.952 L 122.266 132.031 126.563 132.031 L 130.859 132.031 130.859 127.734 L 130.859 123.438 128.223 123.506 C 126.772 123.543,124.839 123.641,123.926 123.724 M269.657 127.587 C 269.784 129.654,269.983 131.441,270.099 131.558 C 270.704 132.162,276.540 132.110,277.155 131.494 C 277.504 131.145,277.615 130.859,277.400 130.859 C 277.186 130.859,276.930 130.552,276.832 130.176 C 276.666 129.541,276.650 129.543,276.608 130.196 C 276.570 130.787,276.298 130.870,274.902 130.714 C 273.989 130.612,272.671 130.515,271.973 130.499 L 270.703 130.469 270.703 127.953 C 270.703 124.947,270.803 124.865,274.035 125.211 C 276.511 125.476,276.563 125.505,276.563 126.631 C 276.563 127.263,276.725 127.680,276.924 127.557 C 277.122 127.435,277.365 127.644,277.464 128.023 C 277.563 128.401,277.664 127.612,277.689 126.270 L 277.734 123.828 273.581 123.828 L 269.427 123.828 269.657 127.587 M253.906 125.289 C 253.906 125.955,254.122 126.034,255.566 125.892 C 257.110 125.741,258.462 125.148,257.337 125.116 C 257.062 125.108,256.177 124.971,255.371 124.812 C 254.078 124.556,253.906 124.612,253.906 125.289 M259.375 125.658 C 260.284 125.863,260.298 125.899,259.570 126.173 C 258.977 126.396,259.260 126.533,260.742 126.743 C 263.517 127.135,264.063 127.328,264.063 127.914 C 264.063 129.186,265.160 128.812,265.314 127.488 C 265.512 125.799,265.695 125.893,261.715 125.645 C 259.891 125.531,258.838 125.537,259.375 125.658 M239.450 128.325 C 238.922 128.960,239.336 129.092,240.178 128.558 C 240.500 128.354,240.556 128.129,240.320 127.983 C 240.107 127.851,239.715 128.005,239.450 128.325 M300.000 133.268 C 299.248 133.732,295.293 136.123,291.211 138.583 C 284.420 142.675,281.961 144.283,279.572 146.197 C 278.726 146.875,278.731 146.877,279.883 146.340 C 280.527 146.040,282.399 145.169,284.043 144.404 C 285.686 143.640,288.281 142.213,289.808 141.234 C 291.336 140.254,292.689 139.453,292.815 139.453 C 292.941 139.453,293.510 139.123,294.080 138.719 C 294.651 138.316,296.497 137.252,298.184 136.355 C 301.714 134.479,301.256 134.288,303.913 138.740 C 305.815 141.928,305.816 141.950,304.004 143.140 C 303.198 143.669,302.105 144.448,301.573 144.872 C 301.042 145.295,300.489 145.569,300.345 145.480 C 300.200 145.390,299.981 145.580,299.858 145.901 C 299.735 146.222,299.365 146.484,299.036 146.484 C 298.707 146.484,298.438 146.679,298.438 146.917 C 298.438 147.155,298.167 147.245,297.837 147.119 C 297.495 146.988,297.140 147.138,297.014 147.468 C 296.891 147.786,296.536 148.047,296.224 148.047 C 295.912 148.047,295.766 148.223,295.898 148.438 C 296.031 148.652,295.910 148.832,295.629 148.837 C 295.144 148.846,291.852 151.563,292.326 151.563 C 292.633 151.563,295.118 150.155,300.054 147.186 C 302.339 145.811,305.020 144.256,306.011 143.731 C 308.258 142.538,308.317 142.886,304.932 137.328 C 301.706 132.030,301.835 132.136,300.000 133.268 M174.120 151.692 C 175.141 152.408,179.404 155.338,183.594 158.204 C 187.783 161.070,191.870 163.927,192.676 164.553 L 194.141 165.691 194.141 177.377 C 194.141 183.804,193.997 189.063,193.821 189.063 C 193.517 189.063,179.003 180.609,175.488 178.385 C 174.575 177.807,173.825 177.029,173.822 176.655 C 173.819 176.282,173.381 170.527,172.850 163.867 C 171.801 150.720,171.782 150.391,172.069 150.391 C 172.176 150.391,173.099 150.976,174.120 151.692 M228.521 151.074 C 228.544 154.130,226.368 177.245,226.022 177.613 C 225.606 178.057,207.761 188.550,206.733 188.956 C 206.339 189.111,206.260 186.693,206.342 177.116 L 206.445 165.082 217.188 157.750 C 228.568 149.983,228.513 150.015,228.521 151.074 M100.788 166.999 C 98.966 167.939,97.424 168.861,97.362 169.047 C 97.269 169.325,100.194 176.080,100.584 176.489 C 100.685 176.596,107.782 173.162,108.148 172.829 C 108.421 172.580,104.878 165.259,104.492 165.274 C 104.277 165.283,102.611 166.059,100.788 166.999 M295.936 168.848 C 295.624 169.331,295.144 170.229,294.868 170.844 C 294.335 172.033,294.289 171.955,296.353 173.329 C 296.985 173.749,296.989 173.779,296.387 173.580 C 295.390 173.250,295.551 173.711,296.696 174.461 C 297.608 175.058,299.961 175.612,299.460 175.111 C 299.340 174.991,299.600 174.390,300.038 173.775 C 300.527 173.088,300.740 172.361,300.591 171.890 C 300.457 171.468,300.527 170.787,300.747 170.377 C 301.101 169.715,300.901 169.536,298.976 168.799 C 296.342 167.792,296.619 167.787,295.936 168.848 M273.047 168.526 C 273.047 168.618,273.618 168.967,274.316 169.303 L 275.586 169.914 274.664 169.136 C 273.811 168.418,273.047 168.129,273.047 168.526 M301.358 168.992 C 301.706 169.340,302.087 169.527,302.206 169.408 C 302.554 169.061,301.959 168.359,301.316 168.359 C 300.806 168.359,300.812 168.446,301.358 168.992 M282.422 172.848 C 282.422 173.115,284.814 174.301,284.992 174.122 C 285.077 174.037,284.533 173.676,283.784 173.319 C 283.035 172.961,282.422 172.749,282.422 172.848 M273.497 180.110 C 273.931 180.342,274.213 180.604,274.125 180.693 C 273.941 180.877,270.703 179.371,270.703 179.102 C 270.703 178.899,272.335 179.488,273.497 180.110 M281.552 183.986 C 282.256 184.415,283.091 184.766,283.408 184.766 C 283.725 184.766,283.984 184.930,283.984 185.130 C 283.984 185.330,284.349 185.610,284.795 185.752 C 285.241 185.893,285.529 186.086,285.435 186.180 C 285.254 186.361,279.688 183.630,279.688 183.361 C 279.688 183.024,280.326 183.238,281.552 183.986 M177.580 193.829 C 182.828 196.881,187.075 199.510,187.018 199.672 C 186.961 199.833,182.959 202.311,178.125 205.178 C 173.291 208.045,168.964 210.629,168.509 210.921 C 167.761 211.400,167.075 211.156,161.283 208.341 C 157.763 206.630,152.292 204.010,149.125 202.518 C 145.958 201.026,143.371 199.717,143.375 199.609 C 143.379 199.502,145.706 198.363,148.547 197.079 C 151.387 195.794,156.699 193.299,160.352 191.534 C 164.004 189.769,167.228 188.315,167.516 188.303 C 167.804 188.291,172.333 190.778,177.580 193.829 M244.640 193.769 C 250.918 196.788,256.189 199.392,256.355 199.558 C 256.520 199.723,253.620 201.282,249.910 203.020 C 246.200 204.759,240.766 207.324,237.835 208.719 L 232.506 211.256 230.218 209.874 C 228.959 209.113,224.766 206.645,220.898 204.387 C 217.031 202.130,213.646 200.109,213.375 199.896 C 212.847 199.479,231.177 188.406,232.531 188.324 C 232.914 188.300,238.363 190.751,244.640 193.769 M194.141 222.391 L 194.141 234.189 183.240 241.563 C 171.745 249.338,171.629 249.401,171.768 247.737 C 171.817 247.155,172.222 241.758,172.668 235.742 C 173.114 229.727,173.604 224.113,173.758 223.267 C 174.038 221.733,174.065 221.714,183.797 216.008 C 189.164 212.861,193.687 210.355,193.848 210.440 C 194.009 210.524,194.141 215.902,194.141 222.391 M215.445 215.443 C 220.320 218.351,224.780 220.973,225.356 221.271 L 226.404 221.813 227.276 232.879 C 227.755 238.966,228.254 245.072,228.384 246.449 C 228.598 248.720,228.557 248.928,227.939 248.690 C 227.214 248.412,211.752 237.999,208.301 235.466 L 206.250 233.960 206.250 222.058 C 206.250 215.512,206.324 210.156,206.415 210.156 C 206.506 210.156,210.569 212.535,215.445 215.443 M119.590 216.399 C 124.822 218.973,129.893 221.515,130.859 222.047 C 132.649 223.033,139.917 226.484,142.306 227.482 C 143.237 227.871,143.829 227.917,144.326 227.638 C 144.868 227.335,144.957 227.361,144.716 227.751 C 144.492 228.115,144.587 228.187,145.053 228.008 C 145.485 227.843,145.703 227.960,145.703 228.356 C 145.703 228.722,145.891 228.844,146.191 228.671 C 146.460 228.517,146.553 228.531,146.398 228.702 C 145.951 229.197,147.550 231.139,148.628 231.409 C 149.168 231.545,149.609 231.828,149.609 232.039 C 149.609 232.249,149.858 232.422,150.163 232.422 C 151.440 232.422,150.904 233.477,149.033 234.648 L 147.026 235.903 146.556 244.026 C 145.639 259.880,144.824 272.463,144.705 272.597 C 144.519 272.807,137.636 271.810,137.134 271.500 C 136.805 271.296,136.790 269.658,137.078 265.202 C 137.292 261.890,137.656 255.752,137.888 251.563 C 138.120 247.373,138.356 243.374,138.412 242.676 C 138.524 241.290,137.865 240.990,136.750 241.921 C 136.410 242.204,135.078 243.057,133.789 243.816 C 132.500 244.575,128.721 246.861,125.391 248.895 C 122.061 250.930,114.820 255.338,109.300 258.691 L 99.264 264.788 98.118 262.960 C 95.372 258.582,94.889 257.544,95.404 257.124 C 95.907 256.714,101.529 253.302,117.969 243.432 C 123.018 240.401,128.891 236.827,131.020 235.490 L 134.891 233.059 133.559 232.470 C 132.312 231.919,107.758 219.891,107.498 219.704 C 107.391 219.627,107.815 217.817,109.023 213.184 C 109.518 211.285,108.681 211.031,119.590 216.399 M98.879 226.660 C 97.985 228.647,97.257 230.380,97.260 230.510 C 97.266 230.769,104.030 233.984,104.569 233.984 C 104.752 233.984,105.716 232.346,106.711 230.343 L 108.519 226.702 104.840 224.874 C 100.236 222.587,100.786 222.422,98.879 226.660 M295.465 224.889 L 291.907 226.684 293.671 230.515 L 295.435 234.346 299.247 232.388 L 303.060 230.430 301.406 226.860 C 299.411 222.555,299.823 222.692,295.465 224.889 M104.808 229.462 C 104.260 230.553,103.763 231.501,103.703 231.569 C 103.643 231.637,102.703 231.242,101.614 230.690 C 99.472 229.605,99.497 229.749,100.949 226.888 L 101.676 225.455 103.740 226.467 L 105.804 227.479 104.808 229.462 M162.251 249.023 C 162.063 249.513,162.972 250.459,163.533 250.358 C 164.345 250.212,164.844 250.431,164.844 250.934 C 164.844 251.233,165.283 251.588,165.820 251.723 C 166.357 251.858,166.797 252.140,166.797 252.351 C 166.797 252.562,167.236 252.734,167.773 252.734 C 168.337 252.734,168.750 252.959,168.750 253.266 C 168.750 253.631,169.076 253.736,169.791 253.599 C 170.637 253.437,170.785 253.520,170.584 254.044 C 170.162 255.143,170.680 255.967,171.432 255.394 C 171.783 255.127,171.962 255.041,171.829 255.202 C 171.696 255.364,172.091 256.035,172.706 256.694 C 173.322 257.353,173.728 258.050,173.608 258.243 C 173.394 258.589,174.250 258.763,175.391 258.605 C 175.713 258.560,175.273 259.031,174.414 259.651 C 172.037 261.365,160.617 269.141,160.476 269.141 C 160.306 269.142,160.469 266.065,161.144 256.538 C 161.460 252.078,161.721 248.210,161.725 247.944 C 161.729 247.609,161.837 247.629,162.079 248.011 C 162.271 248.314,162.348 248.769,162.251 249.023 M122.651 270.801 C 122.648 272.573,122.540 274.419,122.410 274.902 C 122.176 275.775,122.205 275.781,126.492 275.781 L 130.809 275.781 130.932 271.679 L 131.055 267.576 126.855 267.577 L 122.656 267.578 122.651 270.801 M269.459 271.679 L 269.582 275.781 273.658 275.781 L 277.734 275.781 277.734 271.680 L 277.734 267.578 273.535 267.577 L 269.336 267.576 269.459 271.679 M189.551 269.422 C 188.882 269.661,188.933 270.313,189.621 270.313 C 189.927 270.313,190.444 270.578,190.768 270.901 C 191.133 271.267,191.449 271.341,191.600 271.097 C 191.966 270.503,192.969 270.624,192.969 271.262 C 192.969 271.569,193.350 271.877,193.817 271.945 C 194.284 272.014,194.747 272.318,194.847 272.621 C 194.972 272.999,194.828 273.095,194.389 272.926 C 193.995 272.775,193.750 272.880,193.750 273.200 C 193.750 273.544,194.081 273.657,194.727 273.533 C 195.264 273.430,195.703 273.443,195.703 273.560 C 195.703 274.079,170.418 291.406,169.661 291.406 C 169.284 291.406,164.063 286.257,164.063 285.885 C 164.063 285.529,167.196 283.316,177.344 276.506 C 187.767 269.511,188.066 269.322,187.665 269.971 C 187.488 270.258,187.861 270.114,188.495 269.653 C 189.129 269.191,189.735 268.911,189.843 269.031 C 189.951 269.150,189.819 269.326,189.551 269.422 M128.906 271.921 C 128.906 274.208,128.869 274.300,128.027 274.074 C 127.544 273.945,126.485 273.836,125.675 273.833 L 124.201 273.828 124.308 271.681 L 124.414 269.534 126.660 269.532 L 128.906 269.531 128.906 271.921 M197.005 277.320 C 197.359 277.758,197.352 277.819,196.973 277.591 C 196.645 277.394,196.484 277.562,196.484 278.102 C 196.484 279.176,197.568 279.137,197.727 278.058 C 197.795 277.591,198.076 277.165,198.350 277.111 C 198.624 277.056,198.667 277.101,198.447 277.210 C 198.227 277.319,198.050 277.702,198.053 278.060 C 198.058 278.623,198.110 278.632,198.438 278.125 C 198.690 277.734,198.818 277.702,198.822 278.027 C 198.825 278.296,199.104 278.516,199.440 278.516 C 199.777 278.516,200.633 279.131,201.342 279.883 C 202.051 280.635,202.830 281.250,203.073 281.250 C 203.317 281.250,203.536 281.558,203.562 281.934 C 203.587 282.310,203.742 282.090,203.906 281.445 C 204.070 280.801,204.225 289.722,204.251 301.270 L 204.297 322.266 199.985 322.266 L 195.673 322.266 195.700 310.840 C 195.731 297.621,196.221 273.377,196.416 275.389 C 196.489 276.140,196.754 277.009,197.005 277.320 M200.129 279.817 C 200.273 280.211,200.391 280.782,200.391 281.087 C 200.391 281.391,200.654 281.641,200.977 281.641 C 201.830 281.641,201.693 280.705,200.715 279.846 C 199.914 279.143,199.882 279.141,200.129 279.817 M172.898 296.518 L 169.490 298.896 170.425 300.132 C 170.939 300.811,172.027 302.300,172.842 303.440 C 173.703 304.645,174.536 305.431,174.830 305.318 C 176.270 304.765,181.241 300.691,180.987 300.271 C 180.488 299.444,176.536 294.141,176.419 294.141 C 176.357 294.141,174.772 295.211,172.898 296.518 M221.387 297.227 C 218.638 300.978,218.536 300.346,222.335 303.129 C 226.236 305.986,225.556 306.094,228.413 302.166 L 230.815 298.862 227.701 296.680 C 223.566 293.782,223.935 293.750,221.387 297.227 " stroke="none" fill="#d9bf75" fill-rule="evenodd"></path><path id="path1" d="M0.000 200.391 L 0.000 400.000 200.000 400.000 L 400.000 400.000 400.000 200.391 L 400.000 0.781 200.000 0.781 L 0.000 0.781 0.000 200.391 M202.005 75.000 L 206.634 75.000 206.735 98.057 L 206.836 121.113 218.555 113.370 C 225.000 109.111,230.469 105.508,230.709 105.362 C 231.411 104.935,239.927 113.763,239.342 114.311 C 238.885 114.738,210.485 134.098,207.927 135.726 L 206.674 136.523 206.657 143.066 C 206.648 146.665,206.747 149.609,206.877 149.609 C 207.006 149.609,213.354 145.370,220.982 140.188 C 239.506 127.606,241.663 126.172,242.066 126.172 C 242.259 126.172,242.201 129.297,241.933 133.301 C 241.670 137.222,241.087 145.967,240.636 152.734 C 240.185 159.502,239.707 165.986,239.574 167.142 C 239.436 168.345,239.484 169.181,239.686 169.096 C 244.048 167.239,251.172 162.184,251.173 160.944 C 251.174 157.595,253.452 124.568,253.699 124.303 C 253.892 124.097,265.248 125.665,265.518 125.935 C 265.666 126.082,265.378 132.445,264.880 140.075 C 264.381 147.705,264.067 154.041,264.182 154.156 C 264.297 154.271,272.751 149.340,282.968 143.198 C 293.185 137.056,301.692 132.031,301.873 132.031 C 302.236 132.031,308.382 142.531,308.151 142.757 C 308.072 142.834,301.855 146.579,294.336 151.079 C 276.908 161.509,270.312 165.599,270.313 165.977 C 270.313 166.143,275.951 169.045,282.843 172.427 C 290.407 176.139,295.307 178.758,295.205 179.034 C 295.113 179.286,294.366 181.997,293.546 185.059 C 292.725 188.120,291.951 190.625,291.826 190.625 C 291.700 190.625,283.883 186.842,274.455 182.218 C 264.809 177.487,257.037 173.899,256.683 174.014 C 256.338 174.126,253.691 175.610,250.803 177.311 L 245.551 180.405 256.467 185.732 C 262.471 188.662,271.210 192.927,275.888 195.209 C 280.566 197.492,284.335 199.533,284.265 199.745 C 284.194 199.957,275.622 204.239,265.216 209.261 C 254.810 214.283,246.151 218.537,245.973 218.714 C 245.657 219.030,256.105 225.391,256.940 225.391 C 257.172 225.391,264.275 222.031,272.724 217.924 C 288.259 210.374,291.220 208.984,291.780 208.984 C 291.950 208.984,292.735 211.313,293.524 214.160 C 294.313 217.007,295.049 219.638,295.158 220.007 C 295.320 220.553,293.016 221.850,282.784 226.968 C 274.947 230.887,270.348 233.395,270.577 233.624 C 270.930 233.977,273.757 235.707,296.680 249.591 C 302.480 253.104,307.453 256.184,307.729 256.435 C 308.234 256.895,302.595 267.564,301.841 267.574 C 301.672 267.576,296.575 264.569,290.513 260.891 C 284.452 257.214,276.006 252.117,271.744 249.566 L 263.996 244.927 264.220 247.757 C 264.680 253.594,265.254 264.419,265.340 268.919 L 265.430 273.579 260.156 274.265 C 253.130 275.180,253.583 275.215,253.364 273.730 C 253.261 273.032,252.713 264.639,252.146 255.078 C 251.578 245.518,251.057 237.507,250.987 237.277 C 250.865 236.876,241.557 231.192,240.120 230.641 C 239.513 230.408,239.455 230.559,239.643 231.887 C 239.848 233.329,240.845 248.435,241.822 264.903 C 242.073 269.125,242.214 272.755,242.135 272.970 C 242.057 273.184,234.346 268.181,225.000 261.850 C 215.654 255.520,207.700 250.170,207.324 249.961 C 206.685 249.607,206.641 250.012,206.641 256.175 L 206.641 262.768 212.207 266.529 C 221.998 273.144,230.544 279.010,235.260 282.354 L 239.847 285.607 235.672 290.069 C 233.376 292.523,231.358 294.531,231.187 294.531 C 230.927 294.531,216.447 284.805,208.984 279.618 L 206.836 278.125 206.735 301.367 L 206.634 324.609 200.195 324.609 L 193.756 324.609 193.655 301.339 L 193.555 278.068 191.992 279.197 C 191.133 279.818,185.652 283.521,179.813 287.427 L 169.196 294.528 164.969 290.204 C 162.644 287.826,160.707 285.762,160.663 285.616 C 160.583 285.347,168.822 279.593,184.858 268.718 L 193.739 262.695 193.745 256.129 C 193.749 250.977,193.645 249.627,193.262 249.861 C 191.876 250.707,174.469 262.351,166.847 267.532 C 162.040 270.799,158.045 273.409,157.969 273.333 C 157.820 273.184,158.486 262.063,159.795 242.840 C 160.246 236.216,160.525 230.707,160.416 230.598 C 160.306 230.488,158.929 231.170,157.354 232.113 C 155.780 233.056,153.329 234.517,151.906 235.360 L 149.321 236.892 149.081 240.028 C 148.949 241.753,148.387 250.281,147.831 258.979 C 147.276 267.677,146.752 274.863,146.667 274.947 C 146.583 275.032,143.914 274.771,140.737 274.367 L 134.961 273.633 134.818 272.461 C 134.740 271.816,134.992 265.535,135.378 258.502 C 135.764 251.470,135.972 245.608,135.840 245.476 C 135.708 245.344,133.874 246.248,131.765 247.486 C 127.238 250.141,107.502 262.093,102.728 265.068 C 98.171 267.909,98.357 267.880,97.284 265.930 C 96.778 265.010,95.396 262.622,94.214 260.622 C 91.636 256.261,90.804 257.382,101.367 250.980 C 105.879 248.245,111.943 244.558,114.844 242.786 C 117.744 241.014,122.370 238.197,125.123 236.527 L 130.128 233.489 123.951 230.278 C 120.553 228.512,114.900 225.683,111.389 223.992 L 105.005 220.917 105.217 219.609 C 105.506 217.826,107.780 209.670,108.158 209.058 C 108.384 208.691,110.173 209.411,115.071 211.841 C 128.656 218.578,142.867 225.391,143.336 225.391 C 143.800 225.391,152.077 220.594,153.711 219.379 C 154.555 218.751,153.001 217.943,125.401 204.661 C 120.142 202.130,115.791 199.911,115.730 199.728 C 115.669 199.546,124.319 195.182,134.952 190.030 C 145.586 184.879,154.237 180.510,154.177 180.322 C 154.118 180.134,151.646 178.575,148.684 176.857 L 143.299 173.733 131.708 179.395 C 115.006 187.554,108.214 190.770,108.066 190.589 C 107.994 190.501,107.240 187.774,106.389 184.529 L 104.842 178.628 117.504 172.301 C 124.468 168.821,130.091 165.899,130.000 165.807 C 129.909 165.716,121.407 160.534,111.108 154.292 C 100.809 148.050,92.330 142.790,92.266 142.604 C 92.124 142.195,98.104 132.031,98.486 132.031 C 98.635 132.031,106.973 136.969,117.017 143.004 C 127.060 149.039,135.472 154.052,135.710 154.143 C 136.169 154.319,136.065 151.503,135.098 137.500 C 134.802 133.219,134.507 130.831,134.373 131.641 C 134.170 132.873,134.117 132.921,133.844 132.129 C 133.677 131.646,133.377 131.250,133.177 131.250 C 132.976 131.250,132.813 130.723,132.813 130.078 C 132.813 129.434,132.655 128.906,132.463 128.906 C 132.271 128.906,132.095 128.511,132.072 128.027 C 132.048 127.544,132.005 126.709,131.975 126.172 C 131.892 124.687,132.246 123.301,132.751 123.133 C 132.999 123.050,133.203 122.773,133.203 122.519 C 133.203 120.526,141.000 119.472,143.750 121.094 C 144.843 121.738,145.983 122.266,146.283 122.266 C 147.234 122.266,147.353 123.044,146.410 123.100 L 145.508 123.153 146.387 123.323 C 146.870 123.416,147.266 123.666,147.266 123.878 C 147.266 124.091,147.421 124.169,147.612 124.051 C 148.532 123.482,148.714 128.171,147.837 129.853 C 146.971 131.513,148.868 161.962,149.883 162.704 C 151.508 163.893,160.261 168.775,160.442 168.595 C 160.553 168.483,160.442 165.440,160.195 161.833 C 159.947 158.225,159.573 152.637,159.364 149.414 C 159.154 146.191,158.707 139.627,158.370 134.826 C 158.032 130.026,157.832 126.022,157.925 125.929 C 158.018 125.836,161.414 128.033,165.473 130.810 C 169.531 133.587,177.554 139.050,183.301 142.951 L 193.750 150.042 193.750 143.428 L 193.750 136.815 187.598 132.585 C 184.214 130.259,176.963 125.300,171.484 121.566 C 166.006 117.831,161.290 114.551,161.005 114.277 C 160.578 113.866,161.242 112.993,164.752 109.346 L 169.019 104.914 181.192 113.004 C 187.888 117.453,193.452 121.094,193.558 121.094 C 193.663 121.094,193.750 110.611,193.750 97.798 L 193.750 74.503 195.562 74.752 C 196.559 74.888,199.458 75.000,202.005 75.000 M178.402 96.564 L 181.608 98.858 179.048 102.359 C 177.506 104.469,176.309 105.759,176.037 105.606 C 174.479 104.728,169.531 100.983,169.531 100.682 C 169.531 99.864,174.297 93.752,174.737 94.005 C 174.989 94.151,176.638 95.302,178.402 96.564 M228.498 97.108 C 231.354 101.100,231.449 100.571,227.345 103.495 C 223.387 106.315,223.808 106.391,221.007 102.351 C 218.266 98.396,218.267 98.770,220.996 97.029 C 222.231 96.242,223.739 95.181,224.346 94.674 C 225.876 93.394,225.816 93.358,228.498 97.108 M131.055 127.734 L 131.055 132.227 126.660 132.337 L 122.266 132.447 122.266 127.957 L 122.266 123.467 125.879 123.331 C 127.866 123.257,129.844 123.207,130.273 123.219 C 131.008 123.241,131.055 123.510,131.055 127.734 M278.125 127.942 L 278.125 132.447 273.730 132.337 L 269.336 132.227 269.225 127.832 L 269.115 123.438 273.620 123.438 L 278.125 123.438 278.125 127.942 M172.145 152.051 C 172.208 152.749,172.615 157.891,173.050 163.477 C 174.233 178.662,174.008 177.402,175.700 178.355 C 176.497 178.804,178.643 180.056,180.469 181.137 C 188.556 185.924,193.317 188.672,193.525 188.672 C 193.649 188.672,193.746 183.442,193.741 177.051 L 193.731 165.430 188.956 162.148 C 170.313 149.340,171.993 150.349,172.145 152.051 M217.610 157.817 C 211.934 161.668,207.142 164.968,206.960 165.150 C 206.778 165.332,206.675 170.697,206.732 177.072 L 206.836 188.663 211.133 186.179 C 213.496 184.813,217.627 182.430,220.313 180.884 C 222.998 179.337,225.409 177.864,225.669 177.610 C 225.962 177.325,226.384 174.164,226.772 169.336 C 227.118 165.039,227.613 159.106,227.873 156.152 C 228.132 153.198,228.251 150.789,228.137 150.798 C 228.023 150.808,223.286 153.966,217.610 157.817 M106.770 168.813 C 107.775 170.997,108.553 172.822,108.498 172.870 C 108.421 172.937,101.859 176.318,100.745 176.864 C 100.545 176.962,96.875 169.455,96.875 168.947 C 96.875 168.760,104.283 164.902,104.717 164.864 C 104.841 164.853,105.765 166.630,106.770 168.813 M300.449 167.336 L 303.438 168.800 301.651 172.681 C 299.569 177.204,300.088 177.024,295.455 174.829 C 291.178 172.803,291.311 173.255,293.620 168.606 C 295.703 164.412,294.819 164.577,300.449 167.336 M158.748 192.616 C 153.829 194.947,148.414 197.490,146.714 198.267 L 143.624 199.681 146.910 201.150 C 148.717 201.958,153.887 204.417,158.398 206.614 C 162.910 208.811,166.953 210.639,167.383 210.676 C 168.101 210.737,186.711 200.071,186.716 199.595 C 186.718 199.480,185.005 198.397,182.910 197.189 C 180.815 195.981,176.534 193.504,173.396 191.685 L 167.691 188.377 158.748 192.616 M231.816 188.629 C 231.509 188.916,214.720 198.789,213.477 199.413 C 213.217 199.544,213.218 199.675,213.479 199.806 C 213.696 199.914,217.475 202.125,221.878 204.721 C 226.281 207.316,230.498 209.793,231.250 210.226 L 232.617 211.012 243.164 205.982 C 248.965 203.216,254.326 200.672,255.078 200.329 L 256.445 199.705 250.977 197.083 C 242.510 193.022,232.458 188.281,232.316 188.281 C 232.245 188.281,232.021 188.438,231.816 188.629 M189.258 213.151 C 186.895 214.553,182.554 217.098,179.611 218.805 L 174.262 221.909 174.062 223.552 C 173.953 224.456,173.771 226.338,173.658 227.734 C 172.681 239.845,172.250 245.029,172.072 246.795 L 171.864 248.863 182.123 241.963 C 187.766 238.168,192.693 234.769,193.072 234.409 C 193.706 233.809,193.753 232.815,193.658 222.178 L 193.555 210.601 189.258 213.151 M206.641 222.173 C 206.641 232.817,206.702 233.917,207.324 234.464 C 208.420 235.426,227.608 248.438,227.932 248.438 C 228.231 248.438,228.120 246.475,227.137 234.375 C 226.022 220.649,226.273 222.100,224.875 221.302 C 223.796 220.685,211.487 213.388,207.910 211.244 L 206.641 210.483 206.641 222.173 M104.585 224.511 C 106.682 225.531,108.477 226.415,108.573 226.475 C 108.814 226.628,104.975 234.375,104.658 234.375 C 104.306 234.375,96.875 230.843,96.875 230.676 C 96.875 230.532,98.853 226.083,99.867 223.947 C 100.613 222.374,100.053 222.307,104.585 224.511 M301.469 226.384 C 302.380 228.434,303.125 230.275,303.125 230.475 C 303.125 230.818,296.041 234.389,295.412 234.363 C 295.096 234.350,291.797 227.357,291.797 226.701 C 291.797 226.347,298.469 222.858,299.418 222.715 C 299.636 222.683,300.558 224.334,301.469 226.384 M131.250 271.680 L 131.250 276.172 126.758 276.172 L 122.266 276.172 122.266 271.680 L 122.266 267.188 126.758 267.188 L 131.250 267.188 131.250 271.680 M278.125 271.680 L 278.125 276.172 273.633 276.172 L 269.141 276.172 269.141 271.680 L 269.141 267.188 273.633 267.188 L 278.125 267.188 278.125 271.680 M179.243 297.453 C 180.526 299.167,181.507 300.682,181.422 300.818 C 180.405 302.464,174.431 305.917,173.866 305.185 C 171.459 302.072,169.491 299.146,169.599 298.840 C 169.816 298.224,176.351 293.803,176.639 294.078 C 176.788 294.220,177.960 295.738,179.243 297.453 M227.535 296.296 L 231.187 298.842 228.645 302.253 C 227.247 304.129,226.041 305.727,225.965 305.804 C 225.795 305.976,219.258 301.287,218.933 300.761 C 218.805 300.555,219.304 299.640,220.040 298.728 C 220.776 297.816,221.865 296.323,222.460 295.410 C 223.784 293.378,223.204 293.277,227.535 296.296 " stroke="none" fill="#22272d" fill-rule="evenodd"></path><path id="path2" d="M194.238 74.879 C 194.614 74.977,195.229 74.977,195.605 74.879 C 195.981 74.780,195.674 74.700,194.922 74.700 C 194.170 74.700,193.862 74.780,194.238 74.879 M206.393 78.711 C 206.394 80.859,206.459 81.688,206.538 80.553 C 206.618 79.418,206.617 77.660,206.537 76.647 C 206.456 75.634,206.392 76.563,206.393 78.711 M206.428 105.273 C 206.428 113.867,206.480 117.327,206.543 112.962 C 206.605 108.597,206.605 101.566,206.542 97.337 C 206.479 93.108,206.428 96.680,206.428 105.273 M164.442 109.668 L 161.914 112.305 164.551 109.777 C 166.001 108.387,167.188 107.200,167.188 107.140 C 167.188 106.853,166.790 107.219,164.442 109.668 M135.840 121.018 C 134.390 121.593,133.203 122.271,133.203 122.523 C 133.203 122.775,132.999 123.050,132.751 123.133 C 132.246 123.301,131.892 124.687,131.975 126.172 C 132.005 126.709,132.048 127.544,132.072 128.027 C 132.095 128.511,132.271 128.906,132.463 128.906 C 132.655 128.906,132.813 129.434,132.813 130.078 C 132.813 130.723,132.961 131.250,133.143 131.250 C 133.325 131.250,133.655 131.646,133.876 132.129 C 134.366 133.202,135.029 128.397,134.584 126.996 C 134.133 125.574,137.005 124.652,142.294 124.522 L 146.680 124.414 146.797 127.148 C 146.929 130.220,147.414 131.156,148.032 129.530 C 148.727 127.704,148.409 123.558,147.612 124.051 C 147.421 124.169,147.266 124.091,147.266 123.878 C 147.266 123.666,146.870 123.416,146.387 123.323 L 145.508 123.153 146.410 123.100 C 147.353 123.044,147.234 122.266,146.283 122.266 C 145.983 122.266,144.843 121.738,143.750 121.094 C 141.253 119.622,139.402 119.604,135.840 121.018 M129.956 123.300 C 130.427 123.402,130.900 123.782,131.008 124.145 C 131.150 124.620,131.183 124.586,131.126 124.023 C 131.072 123.493,130.734 123.222,130.074 123.178 C 129.259 123.125,129.240 123.144,129.956 123.300 M277.868 129.492 C 277.870 131.211,277.938 131.865,278.021 130.947 C 278.103 130.028,278.102 128.622,278.018 127.822 C 277.934 127.022,277.867 127.773,277.868 129.492 M253.231 129.297 C 253.231 130.264,253.308 130.659,253.401 130.176 C 253.494 129.692,253.494 128.901,253.401 128.418 C 253.308 127.935,253.231 128.330,253.231 129.297 M265.333 130.664 C 265.337 131.523,265.417 131.829,265.511 131.343 C 265.604 130.857,265.601 130.154,265.503 129.781 C 265.405 129.407,265.329 129.805,265.333 130.664 M241.895 131.055 C 241.900 131.914,241.980 132.220,242.073 131.734 C 242.167 131.248,242.163 130.545,242.065 130.171 C 241.967 129.798,241.891 130.195,241.895 131.055 M124.316 132.320 C 125.552 132.397,127.573 132.397,128.809 132.320 C 130.044 132.242,129.033 132.179,126.563 132.179 C 124.092 132.179,123.081 132.242,124.316 132.320 M271.387 132.319 C 272.515 132.398,274.360 132.398,275.488 132.319 C 276.616 132.240,275.693 132.176,273.438 132.176 C 271.182 132.176,270.259 132.240,271.387 132.319 M252.846 134.570 C 252.849 135.645,252.925 136.038,253.015 135.444 C 253.104 134.850,253.102 133.971,253.009 133.491 C 252.917 133.010,252.843 133.496,252.846 134.570 M147.356 135.156 C 147.356 135.908,147.437 136.216,147.535 135.840 C 147.633 135.464,147.633 134.849,147.535 134.473 C 147.437 134.097,147.356 134.404,147.356 135.156 M241.505 136.523 C 241.509 137.383,241.589 137.688,241.683 137.202 C 241.776 136.717,241.772 136.013,241.675 135.640 C 241.577 135.267,241.500 135.664,241.505 136.523 M264.942 136.523 C 264.947 137.383,265.027 137.688,265.120 137.202 C 265.213 136.717,265.210 136.013,265.112 135.640 C 265.014 135.267,264.938 135.664,264.942 136.523 M206.407 142.578 C 206.407 145.908,206.467 147.271,206.540 145.605 C 206.614 143.940,206.614 141.216,206.540 139.551 C 206.467 137.886,206.407 139.248,206.407 142.578 M252.455 140.430 C 252.458 141.504,252.534 141.897,252.624 141.303 C 252.714 140.709,252.711 139.831,252.619 139.350 C 252.526 138.870,252.453 139.355,252.455 140.430 M147.747 141.797 C 147.747 142.549,147.827 142.856,147.926 142.480 C 148.024 142.104,148.024 141.489,147.926 141.113 C 147.827 140.737,147.747 141.045,147.747 141.797 M264.552 141.992 C 264.556 142.852,264.636 143.157,264.729 142.671 C 264.823 142.185,264.819 141.482,264.722 141.109 C 264.624 140.735,264.547 141.133,264.552 141.992 M241.127 142.773 C 241.130 143.848,241.206 144.241,241.296 143.647 C 241.386 143.053,241.383 142.174,241.291 141.694 C 241.198 141.213,241.124 141.699,241.127 142.773 M252.060 146.094 C 252.060 147.061,252.136 147.456,252.229 146.973 C 252.322 146.489,252.322 145.698,252.229 145.215 C 252.136 144.731,252.060 145.127,252.060 146.094 M264.169 148.047 C 264.169 149.014,264.245 149.409,264.338 148.926 C 264.431 148.442,264.431 147.651,264.338 147.168 C 264.245 146.685,264.169 147.080,264.169 148.047 M148.138 148.047 C 148.138 148.799,148.218 149.106,148.316 148.730 C 148.414 148.354,148.414 147.739,148.316 147.363 C 148.218 146.987,148.138 147.295,148.138 148.047 M240.724 148.633 C 240.728 149.492,240.808 149.798,240.901 149.312 C 240.995 148.826,240.991 148.123,240.893 147.749 C 240.796 147.376,240.719 147.773,240.724 148.633 M251.661 152.148 C 251.665 153.008,251.745 153.313,251.839 152.827 C 251.932 152.342,251.929 151.638,251.831 151.265 C 251.733 150.892,251.657 151.289,251.661 152.148 M263.672 153.711 C 263.672 154.248,263.823 154.688,264.008 154.688 C 264.193 154.688,264.261 154.248,264.158 153.711 C 264.055 153.174,263.904 152.734,263.822 152.734 C 263.739 152.734,263.672 153.174,263.672 153.711 M240.333 154.883 C 240.337 155.742,240.417 156.048,240.511 155.562 C 240.604 155.076,240.601 154.373,240.503 153.999 C 240.405 153.626,240.329 154.023,240.333 154.883 M159.864 158.008 C 159.868 158.867,159.948 159.173,160.042 158.687 C 160.135 158.201,160.132 157.498,160.034 157.124 C 159.936 156.751,159.860 157.148,159.864 158.008 M251.278 158.594 C 251.278 159.561,251.354 159.956,251.448 159.473 C 251.541 158.989,251.541 158.198,251.448 157.715 C 251.354 157.231,251.278 157.627,251.278 158.594 M148.919 160.156 C 148.919 160.908,148.999 161.216,149.097 160.840 C 149.196 160.464,149.196 159.849,149.097 159.473 C 148.999 159.097,148.919 159.404,148.919 160.156 M239.934 160.547 C 239.934 161.299,240.015 161.606,240.113 161.230 C 240.211 160.854,240.211 160.239,240.113 159.863 C 240.015 159.487,239.934 159.795,239.934 160.547 M160.247 163.281 C 160.247 164.033,160.327 164.341,160.426 163.965 C 160.524 163.589,160.524 162.974,160.426 162.598 C 160.327 162.222,160.247 162.529,160.247 163.281 M239.544 165.234 C 239.544 165.986,239.624 166.294,239.722 165.918 C 239.821 165.542,239.821 164.927,239.722 164.551 C 239.624 164.175,239.544 164.482,239.544 165.234 M206.342 177.051 C 206.256 188.269,206.395 190.017,207.264 188.612 C 207.435 188.334,207.371 188.266,207.097 188.436 C 206.769 188.639,206.623 185.610,206.543 176.875 L 206.433 165.039 206.342 177.051 M291.797 172.836 C 291.797 172.943,292.500 173.390,293.359 173.828 C 294.219 174.267,294.922 174.537,294.922 174.430 C 294.922 174.323,294.219 173.876,293.359 173.438 C 292.500 172.999,291.797 172.728,291.797 172.836 M206.342 222.120 C 206.257 232.928,206.306 233.932,206.934 234.425 C 207.538 234.899,207.561 234.889,207.135 234.342 C 206.783 233.890,206.623 230.571,206.543 222.037 L 206.433 210.352 206.342 222.120 M173.528 227.344 C 173.528 228.096,173.609 228.403,173.707 228.027 C 173.805 227.651,173.805 227.036,173.707 226.660 C 173.609 226.284,173.528 226.592,173.528 227.344 M160.464 231.250 C 160.558 231.895,160.703 232.422,160.787 232.422 C 160.870 232.422,160.938 231.895,160.938 231.250 C 160.938 230.605,160.792 230.078,160.615 230.078 C 160.437 230.078,160.369 230.605,160.464 231.250 M160.255 235.742 C 160.259 236.602,160.339 236.907,160.433 236.421 C 160.526 235.935,160.522 235.232,160.425 234.859 C 160.327 234.485,160.250 234.883,160.255 235.742 M239.934 237.891 C 239.934 238.643,240.015 238.950,240.113 238.574 C 240.211 238.198,240.211 237.583,240.113 237.207 C 240.015 236.831,239.934 237.139,239.934 237.891 M148.927 239.648 C 148.931 240.508,149.011 240.813,149.104 240.327 C 149.198 239.842,149.194 239.138,149.097 238.765 C 148.999 238.392,148.922 238.789,148.927 239.648 M159.864 241.602 C 159.868 242.461,159.948 242.767,160.042 242.281 C 160.135 241.795,160.132 241.092,160.034 240.718 C 159.936 240.345,159.860 240.742,159.864 241.602 M240.333 243.945 C 240.337 244.805,240.417 245.110,240.511 244.624 C 240.604 244.138,240.601 243.435,240.503 243.062 C 240.405 242.688,240.329 243.086,240.333 243.945 M135.854 246.094 C 135.949 246.738,136.094 247.266,136.177 247.266 C 136.260 247.266,136.328 246.738,136.328 246.094 C 136.328 245.449,136.183 244.922,136.005 244.922 C 135.828 244.922,135.760 245.449,135.854 246.094 M159.466 247.266 C 159.466 248.018,159.546 248.325,159.644 247.949 C 159.743 247.573,159.743 246.958,159.644 246.582 C 159.546 246.206,159.466 246.514,159.466 247.266 M148.138 251.563 C 148.138 252.314,148.218 252.622,148.316 252.246 C 148.414 251.870,148.414 251.255,148.316 250.879 C 148.218 250.503,148.138 250.811,148.138 251.563 M206.399 256.836 C 206.400 259.414,206.463 260.418,206.540 259.067 C 206.616 257.716,206.615 255.606,206.538 254.379 C 206.461 253.152,206.398 254.258,206.399 256.836 M252.044 253.516 C 252.044 254.268,252.124 254.575,252.222 254.199 C 252.321 253.823,252.321 253.208,252.222 252.832 C 252.124 252.456,252.044 252.764,252.044 253.516 M241.114 256.055 C 241.118 256.914,241.198 257.220,241.292 256.734 C 241.385 256.248,241.382 255.545,241.284 255.171 C 241.186 254.798,241.110 255.195,241.114 256.055 M252.442 259.570 C 252.447 260.430,252.527 260.735,252.620 260.249 C 252.713 259.763,252.710 259.060,252.612 258.687 C 252.514 258.313,252.438 258.711,252.442 259.570 M241.497 262.500 C 241.497 263.252,241.577 263.560,241.676 263.184 C 241.774 262.808,241.774 262.192,241.676 261.816 C 241.577 261.440,241.497 261.748,241.497 262.500 M147.356 263.672 C 147.356 264.424,147.437 264.731,147.535 264.355 C 147.633 263.979,147.633 263.364,147.535 262.988 C 147.437 262.612,147.356 262.920,147.356 263.672 M252.846 265.039 C 252.849 266.113,252.925 266.506,253.015 265.913 C 253.104 265.319,253.102 264.440,253.009 263.959 C 252.917 263.479,252.843 263.965,252.846 265.039 M277.863 269.727 C 277.864 271.230,277.935 271.798,278.019 270.987 C 278.104 270.177,278.103 268.946,278.016 268.253 C 277.930 267.560,277.861 268.223,277.863 269.727 M265.325 269.531 C 265.325 270.283,265.405 270.591,265.504 270.215 C 265.602 269.839,265.602 269.224,265.504 268.848 C 265.405 268.472,265.325 268.779,265.325 269.531 M146.966 269.922 C 146.966 270.674,147.046 270.981,147.144 270.605 C 147.243 270.229,147.243 269.614,147.144 269.238 C 147.046 268.862,146.966 269.170,146.966 269.922 M253.237 272.070 C 253.240 273.145,253.316 273.538,253.405 272.944 C 253.495 272.350,253.493 271.471,253.400 270.991 C 253.307 270.510,253.234 270.996,253.237 272.070 M123.340 276.064 C 124.038 276.150,125.181 276.150,125.879 276.064 C 126.577 275.977,126.006 275.906,124.609 275.906 C 123.213 275.906,122.642 275.977,123.340 276.064 M271.987 276.070 C 273.230 276.148,275.164 276.147,276.284 276.069 C 277.404 275.990,276.387 275.926,274.023 275.927 C 271.660 275.928,270.744 275.993,271.987 276.070 M233.374 292.285 L 232.227 293.555 233.496 292.407 C 234.194 291.776,234.766 291.205,234.766 291.138 C 234.766 290.836,234.443 291.102,233.374 292.285 M196.992 324.510 C 198.882 324.582,201.871 324.581,203.632 324.509 C 205.394 324.437,203.848 324.378,200.195 324.379 C 196.543 324.379,195.101 324.438,196.992 324.510 " stroke="none" fill="#73633e" fill-rule="evenodd"></path><path id="path3" d="M193.809 86.426 C 193.835 92.710,193.823 103.452,193.782 110.298 C 193.701 123.875,193.654 123.221,194.629 122.201 C 195.195 121.607,195.212 121.484,194.727 121.484 C 194.225 121.484,194.152 120.510,194.220 114.746 L 194.299 108.008 194.531 112.891 L 194.764 117.773 194.873 114.258 C 194.933 112.324,195.059 110.391,195.154 109.961 C 195.249 109.531,195.438 102.129,195.575 93.512 L 195.823 77.844 198.383 77.774 C 201.412 77.691,202.138 77.357,199.382 77.314 L 197.461 77.284 198.828 76.758 C 200.168 76.242,200.135 76.231,197.168 76.202 C 193.133 76.162,193.284 75.457,197.363 75.291 L 200.586 75.159 197.174 75.080 L 193.763 75.000 193.809 86.426 M201.924 77.403 C 202.355 77.865,202.608 78.404,202.486 78.601 C 202.365 78.798,202.627 79.053,203.069 79.169 C 203.770 79.352,203.891 79.741,204.008 82.170 C 204.114 84.380,204.158 84.087,204.219 80.762 L 204.297 76.563 202.719 76.563 L 201.141 76.563 201.924 77.403 M173.988 94.231 C 173.831 94.504,173.843 94.600,174.014 94.445 C 174.186 94.290,174.829 94.522,175.444 94.960 C 176.059 95.398,176.563 95.668,176.563 95.561 C 176.563 94.963,174.254 93.771,173.988 94.231 M223.147 97.516 L 221.098 98.906 222.715 101.211 C 224.390 103.599,224.762 103.978,224.334 102.862 C 224.157 102.401,224.247 102.270,224.639 102.417 C 224.945 102.532,225.941 102.159,226.852 101.589 L 228.509 100.551 227.115 98.323 C 225.478 95.706,225.737 95.758,223.147 97.516 M171.094 99.242 C 171.094 99.469,170.918 99.547,170.703 99.414 C 170.488 99.281,170.313 99.447,170.313 99.782 C 170.313 100.623,170.810 100.544,171.394 99.609 C 171.683 99.146,171.721 98.828,171.488 98.828 C 171.271 98.828,171.094 99.014,171.094 99.242 M230.078 100.525 C 230.078 100.838,229.507 101.461,228.809 101.908 C 228.110 102.355,227.721 102.724,227.944 102.728 C 228.727 102.740,231.022 100.538,230.538 100.238 C 230.265 100.070,230.078 100.186,230.078 100.525 M169.546 100.684 C 169.564 101.043,172.656 103.217,172.656 102.871 C 172.656 102.735,172.131 102.121,171.488 101.507 C 170.362 100.432,169.515 100.072,169.546 100.684 M232.813 107.139 C 232.813 107.198,234.175 108.560,235.840 110.166 L 238.867 113.086 235.947 110.059 C 233.235 107.247,232.813 106.853,232.813 107.139 M230.859 108.636 C 230.859 108.873,230.601 108.969,230.286 108.848 C 229.971 108.727,229.608 108.797,229.480 109.005 C 229.351 109.212,229.623 109.521,230.082 109.691 C 230.541 109.861,230.860 110.152,230.791 110.339 C 230.721 110.525,231.095 110.709,231.621 110.748 C 232.147 110.787,232.637 110.996,232.709 111.213 C 233.082 112.333,233.836 112.866,234.713 112.632 C 235.590 112.398,235.524 112.280,233.390 110.294 C 230.982 108.054,230.859 107.973,230.859 108.636 M226.074 110.573 C 224.882 111.203,224.105 112.109,224.757 112.109 C 225.306 112.109,227.692 110.873,228.106 110.374 C 228.829 109.503,227.936 109.590,226.074 110.573 M222.266 112.305 C 221.508 112.863,221.197 113.281,221.539 113.281 C 221.867 113.281,222.265 113.152,222.423 112.993 C 222.582 112.835,222.989 112.703,223.329 112.700 C 223.669 112.698,223.993 112.388,224.048 112.012 C 224.185 111.091,223.832 111.149,222.266 112.305 M235.938 113.281 C 235.938 113.496,235.674 113.672,235.352 113.672 C 235.029 113.672,234.766 113.805,234.766 113.967 C 234.766 114.130,234.238 114.496,233.594 114.781 C 232.949 115.066,232.422 115.467,232.422 115.670 C 232.422 116.032,232.861 115.826,235.447 114.249 C 236.700 113.485,237.085 112.891,236.328 112.891 C 236.113 112.891,235.938 113.066,235.938 113.281 M219.930 113.858 C 219.658 114.185,219.278 114.453,219.084 114.453 C 218.891 114.453,218.044 114.909,217.202 115.467 C 216.359 116.024,215.490 116.369,215.271 116.233 C 214.843 115.969,211.571 117.951,211.897 118.277 C 212.003 118.383,212.363 118.245,212.695 117.969 C 213.028 117.693,213.368 117.536,213.450 117.620 C 213.533 117.704,212.988 118.213,212.240 118.750 C 211.491 119.287,210.087 120.308,209.119 121.018 C 207.025 122.553,205.320 123.299,205.562 122.572 C 205.650 122.308,206.072 121.999,206.500 121.886 C 206.928 121.772,207.970 121.080,208.815 120.348 C 209.722 119.562,209.922 119.279,209.302 119.657 C 206.688 121.253,205.469 121.832,205.469 121.478 C 205.469 121.267,205.337 121.094,205.176 121.094 C 205.015 121.093,204.908 121.753,204.938 122.558 C 204.989 123.917,205.599 124.357,206.246 123.503 C 206.356 123.358,207.236 122.714,208.203 122.070 C 209.170 121.427,210.049 120.812,210.156 120.704 C 210.264 120.595,210.875 120.243,211.515 119.921 C 214.097 118.623,216.757 116.887,216.524 116.654 C 216.388 116.518,216.500 116.406,216.773 116.406 C 217.047 116.406,217.999 115.845,218.889 115.159 C 219.779 114.473,220.581 113.858,220.671 113.792 C 220.760 113.726,220.741 113.580,220.629 113.467 C 220.516 113.355,220.201 113.530,219.930 113.858 M216.010 115.252 C 215.476 115.663,215.225 116.002,215.453 116.007 C 216.017 116.019,217.430 114.956,217.181 114.707 C 217.071 114.597,216.544 114.842,216.010 115.252 M224.019 122.792 C 221.958 123.973,207.902 133.721,207.239 134.429 C 206.778 134.922,209.340 133.373,212.500 131.250 C 218.498 127.219,218.968 127.297,213.314 131.385 C 207.803 135.370,209.898 134.212,217.480 129.081 C 225.290 123.797,226.386 122.970,224.219 123.995 L 222.852 124.642 224.204 123.454 C 225.564 122.259,225.479 121.956,224.019 122.792 M269.401 123.698 C 269.258 123.841,269.143 124.149,269.147 124.382 C 269.150 124.649,269.262 124.633,269.449 124.339 C 269.612 124.082,270.796 123.808,272.080 123.729 L 274.414 123.585 272.038 123.511 C 270.731 123.471,269.544 123.555,269.401 123.698 M277.833 125.195 C 277.837 126.055,277.917 126.360,278.011 125.874 C 278.104 125.388,278.101 124.685,278.003 124.312 C 277.905 123.938,277.829 124.336,277.833 125.195 M253.548 126.563 C 253.522 127.744,253.158 133.457,252.737 139.258 C 251.989 149.572,252.029 156.250,252.838 156.250 C 253.046 156.250,253.124 155.898,253.012 155.469 C 252.899 155.039,252.933 154.688,253.086 154.688 C 253.240 154.688,253.685 150.337,254.075 145.020 C 254.466 139.702,254.896 134.476,255.030 133.406 L 255.273 131.460 256.152 132.405 C 256.636 132.925,257.031 133.503,257.031 133.690 C 257.031 133.877,257.180 133.938,257.363 133.826 C 257.545 133.713,258.065 133.966,258.518 134.389 C 258.971 134.811,259.525 135.156,259.749 135.156 C 259.973 135.156,260.135 135.288,260.110 135.449 C 259.981 136.263,260.217 136.719,260.765 136.719 C 261.100 136.719,261.266 136.895,261.133 137.109 C 261.000 137.324,261.176 137.500,261.523 137.500 C 261.871 137.500,262.054 137.336,261.931 137.136 C 261.807 136.936,261.912 136.645,262.164 136.490 C 262.621 136.207,262.398 152.105,261.889 156.152 C 261.675 157.848,262.597 158.641,263.139 157.229 C 263.262 156.908,263.502 156.731,263.672 156.836 C 263.842 156.941,265.032 156.325,266.317 155.466 C 267.602 154.608,268.912 153.906,269.229 153.906 C 269.546 153.906,270.533 153.379,271.422 152.734 C 272.312 152.090,273.205 151.563,273.406 151.563 C 273.608 151.563,274.049 151.286,274.387 150.948 C 275.651 149.684,278.906 150.012,278.906 151.403 C 278.906 151.731,279.690 152.344,280.659 152.772 C 282.635 153.646,283.502 154.784,282.719 155.473 C 282.218 155.913,281.140 156.588,274.333 160.721 C 269.781 163.486,267.188 165.478,267.188 166.212 C 267.188 166.764,289.244 177.975,290.137 177.875 C 290.405 177.846,290.625 178.007,290.625 178.234 C 290.625 178.460,290.743 178.528,290.887 178.384 C 291.031 178.240,291.602 178.396,292.156 178.730 C 292.871 179.161,292.767 178.979,291.797 178.105 C 290.534 176.968,290.504 176.892,291.406 177.108 C 291.943 177.237,291.169 176.734,289.686 175.990 C 288.203 175.246,286.840 174.730,286.659 174.842 C 286.477 174.954,286.328 174.850,286.328 174.609 C 286.328 174.369,286.152 174.281,285.938 174.414 C 285.723 174.547,285.547 174.459,285.547 174.219 C 285.547 173.979,285.387 173.881,285.192 174.002 C 284.690 174.312,283.554 173.818,283.812 173.401 C 283.929 173.211,283.754 173.160,283.422 173.287 C 283.067 173.423,282.720 173.262,282.580 172.894 C 282.448 172.551,282.183 172.367,281.990 172.486 C 281.798 172.605,281.641 172.506,281.641 172.266 C 281.641 172.025,281.465 171.938,281.250 172.070 C 281.035 172.203,280.859 172.165,280.859 171.985 C 280.859 171.805,278.398 170.437,275.391 168.945 C 272.383 167.454,269.922 166.119,269.922 165.980 C 269.922 165.686,276.813 161.367,287.001 155.276 C 290.916 152.935,294.033 150.934,293.928 150.829 C 293.823 150.724,293.529 150.846,293.275 151.100 C 293.021 151.354,292.652 151.563,292.457 151.563 C 291.897 151.563,295.057 148.847,295.629 148.837 C 295.910 148.832,296.031 148.652,295.898 148.438 C 295.766 148.223,295.912 148.047,296.224 148.047 C 296.536 148.047,296.891 147.786,297.014 147.468 C 297.140 147.138,297.495 146.988,297.837 147.119 C 298.167 147.245,298.438 147.155,298.438 146.917 C 298.438 146.679,298.707 146.484,299.036 146.484 C 299.365 146.484,299.735 146.222,299.858 145.901 C 299.981 145.580,300.200 145.390,300.345 145.480 C 300.489 145.569,301.042 145.295,301.573 144.872 C 302.105 144.448,303.198 143.669,304.004 143.140 C 305.816 141.950,305.815 141.928,303.913 138.740 C 301.256 134.288,301.714 134.479,298.184 136.355 C 296.497 137.252,294.651 138.316,294.080 138.719 C 293.510 139.123,292.941 139.453,292.815 139.453 C 292.689 139.453,291.336 140.254,289.808 141.234 C 287.393 142.782,285.699 143.652,279.883 146.335 C 278.722 146.870,278.719 146.869,279.614 146.192 C 280.110 145.815,280.989 145.092,281.567 144.584 C 282.746 143.547,283.053 143.404,278.809 145.871 C 277.004 146.920,276.335 147.586,277.559 147.117 C 277.928 146.975,278.066 147.046,277.910 147.297 C 277.770 147.524,277.397 147.610,277.081 147.489 C 276.308 147.193,274.910 147.976,275.245 148.517 C 275.397 148.763,275.334 148.839,275.099 148.694 C 274.873 148.554,272.284 149.861,269.346 151.599 C 266.407 153.337,263.939 154.695,263.861 154.616 C 263.783 154.538,264.069 149.468,264.496 143.350 C 264.924 137.232,265.189 131.658,265.085 130.964 C 264.980 130.270,265.059 129.600,265.260 129.476 C 265.461 129.352,265.597 128.602,265.562 127.809 C 265.501 126.397,265.497 126.393,265.344 127.616 C 265.189 128.853,264.063 129.116,264.063 127.914 C 264.063 127.328,263.517 127.135,260.742 126.743 C 259.217 126.527,258.960 126.398,259.570 126.151 C 260.281 125.865,260.263 125.833,259.375 125.803 C 258.592 125.776,258.515 125.693,258.984 125.383 C 259.426 125.091,259.265 125.017,258.328 125.079 C 257.644 125.125,257.171 125.301,257.277 125.472 C 257.382 125.642,256.974 125.802,256.371 125.826 C 255.767 125.851,255.010 125.895,254.688 125.924 C 254.365 125.953,253.987 125.625,253.848 125.195 C 253.698 124.737,253.575 125.302,253.548 126.563 M270.964 125.260 C 270.820 125.404,270.703 126.634,270.703 127.995 L 270.703 130.469 271.973 130.499 C 272.671 130.515,273.975 130.611,274.870 130.711 C 276.200 130.860,276.532 130.765,276.681 130.193 C 276.849 129.544,276.866 129.543,276.908 130.176 C 276.975 131.187,277.735 131.007,277.729 129.980 C 277.721 128.602,277.289 127.331,276.909 127.567 C 276.718 127.684,276.563 127.267,276.563 126.640 C 276.563 125.385,271.970 124.254,270.964 125.260 M238.651 128.382 C 235.096 130.738,234.126 131.521,235.254 131.124 C 235.630 130.992,235.938 131.042,235.938 131.236 C 235.938 131.430,235.586 131.700,235.156 131.836 C 234.351 132.092,234.134 132.618,234.692 132.963 C 235.101 133.215,237.180 131.862,236.917 131.514 C 236.808 131.369,236.828 131.330,236.962 131.429 C 237.096 131.527,237.895 131.256,238.738 130.826 L 240.270 130.044 240.053 134.723 C 239.933 137.297,239.990 139.497,240.177 139.613 C 240.365 139.729,240.566 138.466,240.622 136.807 C 240.679 135.147,240.741 133.481,240.759 133.105 C 240.777 132.729,240.950 132.422,241.142 132.422 C 241.334 132.422,241.420 133.037,241.332 133.789 C 241.244 134.541,241.287 135.156,241.426 135.156 C 241.682 135.156,242.318 126.563,242.079 126.324 C 242.008 126.253,240.466 127.179,238.651 128.382 M269.141 129.036 L 269.141 132.031 270.410 131.978 C 271.328 131.940,271.436 131.878,270.801 131.756 C 270.223 131.644,269.912 131.294,269.892 130.735 C 269.836 129.168,269.476 126.377,269.307 126.208 C 269.216 126.117,269.141 127.389,269.141 129.036 M240.178 128.558 C 239.336 129.092,238.922 128.960,239.450 128.325 C 239.715 128.005,240.107 127.851,240.320 127.983 C 240.556 128.129,240.500 128.354,240.178 128.558 M207.889 135.190 C 206.988 135.853,206.250 136.479,206.250 136.582 C 206.250 136.684,207.041 136.199,208.008 135.505 C 209.589 134.370,210.004 133.984,209.647 133.984 C 209.582 133.984,208.791 134.527,207.889 135.190 M241.133 138.672 C 241.133 139.854,241.206 140.337,241.295 139.746 C 241.385 139.155,241.385 138.188,241.295 137.598 C 241.206 137.007,241.133 137.490,241.133 138.672 M240.731 144.922 C 240.731 145.889,240.808 146.284,240.901 145.801 C 240.994 145.317,240.994 144.526,240.901 144.043 C 240.808 143.560,240.731 143.955,240.731 144.922 M300.098 147.096 C 299.185 147.643,298.438 148.183,298.438 148.296 C 298.438 148.507,301.073 147.010,301.738 146.422 C 302.410 145.828,301.784 146.085,300.098 147.096 M251.563 156.468 C 251.563 157.018,251.722 157.370,251.916 157.249 C 252.111 157.129,252.179 156.679,252.066 156.250 C 251.785 155.175,251.563 155.271,251.563 156.468 M251.867 158.838 C 252.030 159.693,252.122 159.758,252.420 159.225 C 252.784 158.575,252.549 157.813,251.984 157.813 C 251.812 157.813,251.759 158.274,251.867 158.838 M295.153 165.902 C 295.031 166.287,294.944 166.758,294.960 166.949 C 294.976 167.139,294.820 167.403,294.615 167.534 C 294.410 167.666,293.690 168.869,293.017 170.209 L 291.792 172.644 294.626 174.103 C 300.060 176.900,299.303 177.048,301.347 172.790 C 302.328 170.747,303.031 168.914,302.909 168.717 C 302.544 168.126,301.960 168.314,302.202 168.945 C 302.326 169.268,302.308 169.531,302.162 169.531 C 302.017 169.531,301.634 169.268,301.311 168.945 C 300.860 168.494,300.844 168.358,301.242 168.353 C 301.628 168.349,301.613 168.256,301.182 167.983 C 300.814 167.750,300.515 167.768,300.352 168.031 C 300.176 168.316,300.015 168.309,299.830 168.010 C 299.684 167.773,299.705 167.576,299.879 167.574 C 300.340 167.569,297.221 165.767,296.223 165.461 C 295.605 165.272,295.315 165.391,295.153 165.902 M239.063 168.141 C 239.063 168.665,239.206 169.183,239.382 169.292 C 239.558 169.401,239.626 168.972,239.533 168.339 C 239.329 166.943,239.063 166.831,239.063 168.141 M298.976 168.799 C 300.901 169.536,301.101 169.715,300.747 170.377 C 300.527 170.787,300.457 171.468,300.591 171.890 C 300.740 172.361,300.527 173.088,300.038 173.775 C 299.600 174.390,299.340 174.991,299.460 175.111 C 299.961 175.612,297.608 175.058,296.696 174.461 C 295.551 173.711,295.390 173.250,296.387 173.580 C 296.989 173.779,296.985 173.749,296.353 173.329 C 294.289 171.955,294.335 172.033,294.868 170.844 C 295.445 169.557,296.432 167.969,296.654 167.969 C 296.737 167.969,297.782 168.343,298.976 168.799 M274.664 169.136 L 275.586 169.914 274.316 169.303 C 273.057 168.698,272.726 168.359,273.394 168.359 C 273.585 168.359,274.157 168.709,274.664 169.136 M294.141 178.656 C 294.141 179.081,293.966 179.235,293.684 179.061 C 293.379 178.872,293.307 178.989,293.468 179.408 C 293.638 179.851,293.542 179.974,293.144 179.821 C 292.272 179.486,292.474 180.216,293.417 180.805 C 294.016 181.179,294.119 181.412,293.779 181.623 C 293.262 181.942,292.418 185.127,292.760 185.468 C 293.138 185.846,293.470 185.196,293.513 183.995 C 293.536 183.346,293.669 182.814,293.809 182.813 C 294.344 182.812,295.033 178.861,294.578 178.406 C 294.255 178.083,294.141 178.149,294.141 178.656 M270.703 179.102 C 270.703 179.371,273.941 180.877,274.125 180.693 C 274.213 180.604,273.931 180.342,273.497 180.110 C 272.335 179.488,270.703 178.899,270.703 179.102 M279.688 183.361 C 279.688 183.630,285.254 186.361,285.435 186.180 C 285.529 186.086,285.241 185.893,284.795 185.752 C 284.349 185.610,283.984 185.330,283.984 185.130 C 283.984 184.930,283.725 184.766,283.408 184.766 C 283.091 184.766,282.256 184.415,281.552 183.986 C 280.326 183.238,279.688 183.024,279.688 183.361 M291.786 184.807 C 291.548 185.688,291.452 186.664,291.571 186.975 C 291.708 187.333,291.624 187.439,291.340 187.264 C 291.037 187.076,290.962 187.254,291.109 187.815 C 291.420 189.005,290.555 189.594,289.616 188.832 C 288.894 188.245,288.901 188.231,289.802 188.426 C 290.497 188.576,290.624 188.515,290.297 188.187 C 289.805 187.695,288.214 187.466,288.499 187.928 C 288.600 188.090,288.372 188.282,287.993 188.356 C 287.559 188.440,288.068 188.818,289.367 189.378 C 291.452 190.276,292.415 190.218,292.031 189.218 C 291.916 188.918,292.010 188.672,292.242 188.672 C 292.474 188.672,292.550 188.380,292.411 188.020 C 292.274 187.661,292.375 187.235,292.637 187.073 C 293.010 186.843,293.005 186.647,292.616 186.179 C 292.303 185.802,292.215 185.137,292.379 184.391 C 292.769 182.617,292.284 182.957,291.786 184.807 M109.023 213.184 C 107.815 217.817,107.391 219.627,107.498 219.704 C 107.758 219.891,132.312 231.919,133.559 232.470 L 134.891 233.059 131.020 235.490 C 128.891 236.827,123.018 240.401,117.969 243.432 C 101.529 253.302,95.907 256.714,95.404 257.124 C 94.889 257.544,95.372 258.582,98.118 262.960 L 99.264 264.788 109.300 258.691 C 114.820 255.338,122.061 250.930,125.391 248.895 C 128.721 246.861,132.500 244.575,133.789 243.816 C 135.078 243.057,136.410 242.204,136.750 241.921 C 137.865 240.990,138.524 241.290,138.412 242.676 C 138.356 243.374,138.120 247.373,137.888 251.563 C 137.656 255.752,137.292 261.890,137.078 265.202 C 136.790 269.658,136.805 271.296,137.134 271.500 C 137.636 271.810,144.519 272.807,144.705 272.597 C 144.824 272.463,145.639 259.880,146.556 244.026 L 147.026 235.903 149.033 234.648 C 150.904 233.477,151.440 232.422,150.163 232.422 C 149.858 232.422,149.609 232.249,149.609 232.039 C 149.609 231.828,149.168 231.545,148.628 231.409 C 147.550 231.139,145.951 229.197,146.398 228.702 C 146.553 228.531,146.460 228.517,146.191 228.671 C 145.891 228.844,145.703 228.722,145.703 228.356 C 145.703 227.960,145.485 227.843,145.053 228.008 C 144.587 228.187,144.492 228.115,144.716 227.751 C 144.957 227.361,144.868 227.335,144.326 227.638 C 143.829 227.917,143.237 227.871,142.306 227.482 C 139.917 226.484,132.649 223.033,130.859 222.047 C 127.970 220.456,110.107 211.719,109.742 211.719 C 109.557 211.719,109.233 212.378,109.023 213.184 M100.949 226.888 C 99.497 229.749,99.472 229.605,101.614 230.690 C 102.703 231.242,103.643 231.637,103.703 231.569 C 103.763 231.501,104.260 230.553,104.808 229.462 L 105.804 227.479 103.740 226.467 L 101.676 225.455 100.949 226.888 M160.645 233.789 C 160.650 234.648,160.730 234.954,160.823 234.468 C 160.917 233.982,160.913 233.279,160.815 232.906 C 160.717 232.532,160.641 232.930,160.645 233.789 M161.725 247.944 C 161.721 248.210,161.460 252.078,161.144 256.538 C 160.469 266.065,160.306 269.142,160.476 269.141 C 160.617 269.141,172.037 261.365,174.414 259.651 C 175.273 259.031,175.713 258.560,175.391 258.605 C 174.250 258.763,173.394 258.589,173.608 258.243 C 173.728 258.050,173.322 257.353,172.706 256.694 C 172.091 256.035,171.696 255.364,171.829 255.202 C 171.962 255.041,171.783 255.127,171.432 255.394 C 170.680 255.967,170.162 255.143,170.584 254.044 C 170.785 253.520,170.637 253.437,169.791 253.599 C 169.076 253.736,168.750 253.631,168.750 253.266 C 168.750 252.959,168.337 252.734,167.773 252.734 C 167.236 252.734,166.797 252.562,166.797 252.351 C 166.797 252.140,166.357 251.858,165.820 251.723 C 165.283 251.588,164.844 251.233,164.844 250.934 C 164.844 250.431,164.345 250.212,163.533 250.358 C 162.972 250.459,162.063 249.513,162.251 249.023 C 162.348 248.769,162.271 248.314,162.079 248.011 C 161.837 247.629,161.729 247.609,161.725 247.944 M188.495 269.653 C 187.861 270.114,187.488 270.258,187.665 269.971 C 188.066 269.322,187.767 269.511,177.344 276.506 C 167.196 283.316,164.063 285.529,164.063 285.885 C 164.063 286.257,169.284 291.406,169.661 291.406 C 170.418 291.406,195.703 274.079,195.703 273.560 C 195.703 273.443,195.264 273.430,194.727 273.533 C 194.081 273.657,193.750 273.544,193.750 273.200 C 193.750 272.880,193.995 272.775,194.389 272.926 C 194.828 273.095,194.972 272.999,194.847 272.621 C 194.747 272.318,194.284 272.014,193.817 271.945 C 193.350 271.877,192.969 271.569,192.969 271.262 C 192.969 270.624,191.966 270.503,191.600 271.097 C 191.449 271.341,191.133 271.267,190.768 270.901 C 190.444 270.578,189.927 270.313,189.621 270.313 C 188.933 270.313,188.882 269.661,189.551 269.422 C 189.819 269.326,189.951 269.150,189.843 269.031 C 189.735 268.911,189.129 269.191,188.495 269.653 M124.308 271.681 L 124.201 273.828 125.675 273.833 C 126.485 273.836,127.544 273.945,128.027 274.074 C 128.869 274.300,128.906 274.208,128.906 271.921 L 128.906 269.531 126.660 269.532 L 124.414 269.534 124.308 271.681 M196.005 286.719 C 195.852 293.701,195.715 304.556,195.700 310.840 L 195.673 322.266 199.985 322.266 L 204.297 322.266 204.251 301.270 C 204.225 289.722,204.070 280.801,203.906 281.445 C 203.742 282.090,203.587 282.310,203.562 281.934 C 203.536 281.558,203.317 281.250,203.073 281.250 C 202.830 281.250,202.051 280.635,201.342 279.883 C 200.633 279.131,199.777 278.516,199.440 278.516 C 199.104 278.516,198.825 278.296,198.822 278.027 C 198.818 277.702,198.690 277.734,198.438 278.125 C 198.110 278.632,198.058 278.623,198.053 278.060 C 198.050 277.702,198.227 277.319,198.447 277.210 C 198.667 277.101,198.624 277.056,198.350 277.111 C 198.076 277.165,197.795 277.591,197.727 278.058 C 197.568 279.137,196.484 279.176,196.484 278.102 C 196.484 277.562,196.645 277.394,196.973 277.591 C 197.352 277.819,197.359 277.758,197.005 277.320 C 196.754 277.009,196.489 276.140,196.416 275.389 C 196.343 274.638,196.158 279.736,196.005 286.719 M201.563 281.115 C 201.563 281.404,201.299 281.641,200.977 281.641 C 200.654 281.641,200.391 281.391,200.391 281.087 C 200.391 280.782,200.273 280.211,200.129 279.817 C 199.882 279.141,199.914 279.143,200.715 279.846 C 201.181 280.255,201.563 280.826,201.563 281.115 M235.916 289.355 L 234.570 290.820 236.035 289.474 C 237.399 288.221,237.680 287.891,237.381 287.891 C 237.316 287.891,236.657 288.550,235.916 289.355 " stroke="none" fill="#a0742f" fill-rule="evenodd"></path><path id="path4" d="M206.393 86.133 C 206.394 88.281,206.459 89.110,206.538 87.975 C 206.618 86.840,206.617 85.082,206.537 84.069 C 206.456 83.056,206.392 83.984,206.393 86.133 M122.949 123.713 C 123.433 123.806,124.224 123.806,124.707 123.713 C 125.190 123.620,124.795 123.544,123.828 123.544 C 122.861 123.544,122.466 123.620,122.949 123.713 M275.103 123.718 C 275.697 123.808,276.576 123.805,277.056 123.712 C 277.537 123.620,277.051 123.546,275.977 123.549 C 274.902 123.552,274.509 123.628,275.103 123.718 M138.672 124.648 C 136.437 125.054,134.951 125.807,136.914 125.539 C 137.773 125.422,139.443 125.199,140.625 125.044 C 142.591 124.786,142.657 124.746,141.406 124.581 C 140.654 124.481,139.424 124.511,138.672 124.648 M131.002 128.320 C 131.003 130.469,131.069 131.298,131.148 130.163 C 131.227 129.028,131.226 127.270,131.146 126.256 C 131.066 125.243,131.001 126.172,131.002 128.320 M193.878 139.258 C 193.880 140.762,193.951 141.329,194.035 140.519 C 194.120 139.708,194.118 138.478,194.032 137.784 C 193.946 137.091,193.876 137.754,193.878 139.258 M193.822 147.777 C 193.771 149.379,193.617 149.964,193.299 149.767 C 193.008 149.588,192.955 149.661,193.148 149.974 C 193.732 150.919,194.185 149.720,194.040 147.614 L 193.895 145.508 193.822 147.777 M159.856 155.469 C 159.856 156.221,159.937 156.528,160.035 156.152 C 160.133 155.776,160.133 155.161,160.035 154.785 C 159.937 154.409,159.856 154.717,159.856 155.469 M148.528 155.859 C 148.528 156.611,148.609 156.919,148.707 156.543 C 148.805 156.167,148.805 155.552,148.707 155.176 C 148.609 154.800,148.528 155.107,148.528 155.859 M239.942 158.008 C 239.947 158.867,240.027 159.173,240.120 158.687 C 240.213 158.201,240.210 157.498,240.112 157.124 C 240.014 156.751,239.938 157.148,239.942 158.008 M193.923 177.539 C 193.923 183.984,193.976 186.676,194.042 183.520 C 194.108 180.365,194.108 175.091,194.042 171.801 C 193.977 168.512,193.923 171.094,193.923 177.539 M193.923 222.266 C 193.923 228.818,193.977 231.499,194.042 228.223 C 194.108 224.946,194.108 219.585,194.042 216.309 C 193.977 213.032,193.923 215.713,193.923 222.266 M173.138 229.688 C 173.138 230.439,173.218 230.747,173.316 230.371 C 173.414 229.995,173.414 229.380,173.316 229.004 C 173.218 228.628,173.138 228.936,173.138 229.688 M172.747 234.375 C 172.747 235.127,172.827 235.435,172.926 235.059 C 173.024 234.683,173.024 234.067,172.926 233.691 C 172.827 233.315,172.747 233.623,172.747 234.375 M239.934 240.234 C 239.934 240.986,240.015 241.294,240.113 240.918 C 240.211 240.542,240.211 239.927,240.113 239.551 C 240.015 239.175,239.934 239.482,239.934 240.234 M227.825 241.406 C 227.825 242.158,227.905 242.466,228.004 242.090 C 228.102 241.714,228.102 241.099,228.004 240.723 C 227.905 240.347,227.825 240.654,227.825 241.406 M148.544 242.969 C 148.544 243.936,148.620 244.331,148.713 243.848 C 148.806 243.364,148.806 242.573,148.713 242.090 C 148.620 241.606,148.544 242.002,148.544 242.969 M159.856 244.141 C 159.856 244.893,159.937 245.200,160.035 244.824 C 160.133 244.448,160.133 243.833,160.035 243.457 C 159.937 243.081,159.856 243.389,159.856 244.141 M251.653 245.703 C 251.653 246.455,251.734 246.763,251.832 246.387 C 251.930 246.011,251.930 245.396,251.832 245.020 C 251.734 244.644,251.653 244.951,251.653 245.703 M136.028 248.438 C 136.028 249.189,136.109 249.497,136.207 249.121 C 136.305 248.745,136.305 248.130,136.207 247.754 C 136.109 247.378,136.028 247.686,136.028 248.438 M148.138 249.219 C 148.138 249.971,148.218 250.278,148.316 249.902 C 148.414 249.526,148.414 248.911,148.316 248.535 C 148.218 248.159,148.138 248.467,148.138 249.219 M193.749 255.976 L 193.943 262.695 194.052 256.280 C 194.112 252.751,194.024 249.727,193.858 249.560 C 193.691 249.393,193.642 252.280,193.749 255.976 M264.153 250.781 C 264.153 251.533,264.234 251.841,264.332 251.465 C 264.430 251.089,264.430 250.474,264.332 250.098 C 264.234 249.722,264.153 250.029,264.153 250.781 M240.716 251.953 C 240.716 252.705,240.796 253.013,240.894 252.637 C 240.993 252.261,240.993 251.646,240.894 251.270 C 240.796 250.894,240.716 251.201,240.716 251.953 M147.747 255.469 C 147.747 256.221,147.827 256.528,147.926 256.152 C 148.024 255.776,148.024 255.161,147.926 254.785 C 147.827 254.409,147.747 254.717,147.747 255.469 M252.442 256.836 C 252.447 257.695,252.527 258.001,252.620 257.515 C 252.713 257.029,252.710 256.326,252.612 255.952 C 252.514 255.579,252.438 255.977,252.442 256.836 M264.544 257.422 C 264.544 258.174,264.624 258.481,264.722 258.105 C 264.821 257.729,264.821 257.114,264.722 256.738 C 264.624 256.362,264.544 256.670,264.544 257.422 M241.106 258.594 C 241.106 259.346,241.187 259.653,241.285 259.277 C 241.383 258.901,241.383 258.286,241.285 257.910 C 241.187 257.534,241.106 257.842,241.106 258.594 M158.684 260.938 C 158.684 261.689,158.765 261.997,158.863 261.621 C 158.961 261.245,158.961 260.630,158.863 260.254 C 158.765 259.878,158.684 260.186,158.684 260.938 M147.356 261.328 C 147.356 262.080,147.437 262.388,147.535 262.012 C 147.633 261.636,147.633 261.021,147.535 260.645 C 147.437 260.269,147.356 260.576,147.356 261.328 M135.247 261.719 C 135.247 262.471,135.327 262.778,135.426 262.402 C 135.524 262.026,135.524 261.411,135.426 261.035 C 135.327 260.659,135.247 260.967,135.247 261.719 M252.825 262.109 C 252.825 262.861,252.905 263.169,253.004 262.793 C 253.102 262.417,253.102 261.802,253.004 261.426 C 252.905 261.050,252.825 261.357,252.825 262.109 M264.934 263.672 C 264.934 264.424,265.015 264.731,265.113 264.355 C 265.211 263.979,265.211 263.364,265.113 262.988 C 265.015 262.612,264.934 262.920,264.934 263.672 M241.497 264.844 C 241.497 265.596,241.577 265.903,241.676 265.527 C 241.774 265.151,241.774 264.536,241.676 264.160 C 241.577 263.784,241.497 264.092,241.497 264.844 M122.432 267.708 C 122.322 267.995,122.292 269.709,122.365 271.517 L 122.497 274.805 122.577 271.205 L 122.656 267.605 126.855 267.479 L 131.055 267.353 126.843 267.270 C 123.634 267.207,122.584 267.311,122.432 267.708 M253.231 268.750 C 253.231 269.717,253.308 270.112,253.401 269.629 C 253.494 269.146,253.494 268.354,253.401 267.871 C 253.308 267.388,253.231 267.783,253.231 268.750 M274.121 267.470 C 274.819 267.557,275.962 267.557,276.660 267.470 C 277.358 267.383,276.787 267.313,275.391 267.313 C 273.994 267.313,273.423 267.383,274.121 267.470 M134.864 268.945 C 134.868 269.805,134.948 270.110,135.042 269.624 C 135.135 269.138,135.132 268.435,135.034 268.062 C 134.936 267.688,134.860 268.086,134.864 268.945 M130.984 270.313 C 130.984 271.709,131.055 272.280,131.142 271.582 C 131.229 270.884,131.229 269.741,131.142 269.043 C 131.055 268.345,130.984 268.916,130.984 270.313 M269.206 271.754 C 269.170 273.944,269.272 275.817,269.434 275.918 C 269.595 276.018,269.679 274.842,269.620 273.304 C 269.428 268.279,269.273 267.699,269.206 271.754 M241.730 271.484 C 241.648 272.344,241.717 273.047,241.884 273.047 C 242.051 273.047,242.188 272.344,242.188 271.484 C 242.188 270.625,242.118 269.922,242.033 269.922 C 241.948 269.922,241.812 270.625,241.730 271.484 M265.333 272.070 C 265.337 272.930,265.417 273.235,265.511 272.749 C 265.604 272.263,265.601 271.560,265.503 271.187 C 265.405 270.813,265.329 271.211,265.333 272.070 M277.846 274.023 C 277.849 275.098,277.925 275.491,278.015 274.897 C 278.104 274.303,278.102 273.424,278.009 272.944 C 277.917 272.463,277.843 272.949,277.846 274.023 M127.832 276.061 C 128.423 276.151,129.390 276.151,129.980 276.061 C 130.571 275.972,130.088 275.898,128.906 275.898 C 127.725 275.898,127.241 275.972,127.832 276.061 M193.749 285.663 L 193.944 293.555 194.051 285.966 C 194.110 281.792,194.022 278.241,193.856 278.074 C 193.690 277.908,193.642 281.323,193.749 285.663 M206.432 302.930 C 206.432 314.746,206.482 319.636,206.543 313.797 C 206.603 307.958,206.603 298.290,206.543 292.313 C 206.482 286.336,206.432 291.113,206.432 302.930 M162.484 287.598 C 164.102 289.322,164.453 289.632,164.453 289.339 C 164.453 289.276,163.618 288.441,162.598 287.484 L 160.742 285.742 162.484 287.598 " stroke="none" fill="#877954" fill-rule="evenodd"></path></g></svg>